<svg width="89" height="37" viewBox="0 0 89 37" fill="none" xmlns="http://www.w3.org/2000/svg">
<path d="M5.63205 15.1822C4.52892 15.1822 3.58771 14.9494 2.80843 14.4839C2.02916 14.0082 1.43205 13.3605 1.01711 12.5407C0.612289 11.721 0.40988 10.7798 0.40988 9.71711C0.40988 8.65446 0.607229 7.70819 1.00193 6.87831C1.40675 6.03831 1.9988 5.38048 2.77807 4.90482C3.55735 4.42916 4.50868 4.19132 5.63205 4.19132C6.94771 4.19132 8.0306 4.5253 8.88072 5.19325C9.73084 5.85108 10.252 6.78723 10.4443 8.00169H7.81807C7.71687 7.48554 7.46892 7.08578 7.07422 6.80241C6.68964 6.51904 6.19374 6.37735 5.58651 6.37735C5.06024 6.37735 4.58964 6.50385 4.1747 6.75687C3.75976 6.99976 3.4359 7.36916 3.20313 7.86506C2.97036 8.35084 2.85398 8.96819 2.85398 9.71711C2.85398 10.4458 2.9653 11.0581 3.18795 11.554C3.42072 12.0398 3.74458 12.4092 4.15952 12.6622C4.57446 12.9051 5.05012 13.0265 5.58651 13.0265C6.19374 13.0265 6.68964 12.9 7.07422 12.647C7.46892 12.3839 7.71687 12.0145 7.81807 11.5388H10.4443C10.252 12.6723 9.73084 13.5629 8.88072 14.2106C8.0306 14.8583 6.94771 15.1822 5.63205 15.1822ZM17.7135 15.1822C16.9849 15.1822 16.2865 15.0557 15.6186 14.8027C14.9608 14.5496 14.3687 14.1853 13.8424 13.7096C13.3263 13.234 12.9164 12.6571 12.6128 11.979C12.3193 11.301 12.1726 10.5369 12.1726 9.68675C12.1726 8.83663 12.3193 8.07253 12.6128 7.39446C12.9164 6.71638 13.3263 6.13952 13.8424 5.66386C14.3687 5.18819 14.9608 4.82385 15.6186 4.57084C16.2865 4.31783 16.9849 4.19132 17.7135 4.19132C18.4422 4.19132 19.1405 4.31783 19.8085 4.57084C20.4764 4.82385 21.0685 5.18819 21.5846 5.66386C22.1109 6.13952 22.5258 6.71638 22.8294 7.39446C23.1331 8.07253 23.2849 8.83663 23.2849 9.68675C23.2849 10.5369 23.1331 11.301 22.8294 11.979C22.5258 12.6571 22.1109 13.234 21.5846 13.7096C21.0685 14.1853 20.4764 14.5496 19.8085 14.8027C19.1405 15.0557 18.4422 15.1822 17.7135 15.1822ZM17.7135 13.0113C18.2094 13.0113 18.6952 12.8899 19.1709 12.647C19.6465 12.4041 20.0362 12.0398 20.3398 11.554C20.6535 11.0581 20.8104 10.4357 20.8104 9.68675C20.8104 8.92771 20.6535 8.3053 20.3398 7.81952C20.0261 7.32361 19.6314 6.95928 19.1557 6.72651C18.68 6.48361 18.1993 6.36217 17.7135 6.36217C17.2277 6.36217 16.747 6.48361 16.2714 6.72651C15.8058 6.95928 15.4162 7.32361 15.1024 7.81952C14.7988 8.3053 14.647 8.92771 14.647 9.68675C14.647 10.4357 14.7988 11.0581 15.1024 11.554C15.4061 12.0398 15.7906 12.4041 16.2562 12.647C16.7318 12.8899 17.2176 13.0113 17.7135 13.0113ZM25.3211 15V4.37349H28.1751L30.771 10.886L33.291 4.37349H36.1449V15H33.7464V8.60892L31.697 13.7552H29.769L27.7196 8.59373V15H25.3211ZM38.4773 15V4.37349H42.6976C43.4262 4.37349 44.0841 4.50506 44.6711 4.76819C45.258 5.03132 45.7185 5.41084 46.0525 5.90675C46.3966 6.40265 46.5686 6.9947 46.5686 7.68289C46.5686 8.36096 46.4017 8.95301 46.0677 9.45904C45.7438 9.95494 45.2884 10.3395 44.7014 10.6128C44.1246 10.886 43.4566 11.0227 42.6976 11.0227H40.8759V15H38.4773ZM40.8759 8.97325H42.6368C43.2036 8.97325 43.5932 8.84675 43.8058 8.59373C44.0284 8.3306 44.1397 8.02699 44.1397 7.68289C44.1397 7.35904 44.0284 7.0706 43.8058 6.81759C43.5932 6.55446 43.2036 6.42289 42.6368 6.42289H40.8759V8.97325ZM52.653 15.1822C51.6612 15.1822 50.8465 14.9848 50.2089 14.5901C49.5713 14.1954 49.1007 13.6692 48.7971 13.0113C48.4935 12.3535 48.3417 11.6248 48.3417 10.8253V4.37349H50.7251V10.8405C50.7251 11.5287 50.8921 12.06 51.226 12.4345C51.56 12.7988 52.0509 12.981 52.6986 12.981C53.3362 12.981 53.827 12.7988 54.1711 12.4345C54.5253 12.06 54.7024 11.5287 54.7024 10.8405V4.37349H57.0858V10.8253C57.0858 11.6552 56.9492 12.3484 56.6759 12.9051C56.4027 13.4617 56.0434 13.907 55.5981 14.241C55.1629 14.5749 54.6822 14.8178 54.1559 14.9696C53.6398 15.1113 53.1388 15.1822 52.653 15.1822ZM61.8383 15V6.43807H58.787V4.37349H67.2882V6.43807H64.2217V15H61.8383ZM69.0807 15V4.37349H76.0638V6.43807H71.4793V8.36602H75.3504V10.4306H71.4793V12.9354H76.0638V15H69.0807ZM78.2046 15V4.37349H82.2578C82.9865 4.37349 83.6291 4.5 84.1858 4.75301C84.7424 5.00602 85.1776 5.37036 85.4913 5.84602C85.805 6.31157 85.9619 6.86819 85.9619 7.5159C85.9619 8.22434 85.7696 8.81639 85.385 9.29205C85.0005 9.76771 84.4691 10.1067 83.7911 10.3092L86.6906 15H83.9277L81.3925 10.6735H80.6031V15H78.2046ZM80.6031 8.63928H82.2123C82.5867 8.63928 82.865 8.58361 83.0472 8.47229C83.2395 8.35084 83.3711 8.2041 83.4419 8.03205C83.5128 7.86 83.5482 7.68795 83.5482 7.5159C83.5482 7.34385 83.5128 7.17687 83.4419 7.01494C83.3711 6.84289 83.2395 6.7012 83.0472 6.58988C82.865 6.47855 82.5867 6.42289 82.2123 6.42289H80.6031V8.63928Z" fill="#FF7003"/>
<path d="M0.0759036 32L1.95831 21.3735H8.91108L8.51639 23.4381H3.96217L3.62819 25.4723H7.71181L7.33229 27.5369H3.24868L2.45928 32H0.0759036ZM9.00668 32L10.9043 21.3735H13.2876L11.4052 32H9.00668ZM13.0733 32L17.4757 26.1706L15.5022 21.3735H18.2196L19.2974 23.9846L21.195 21.3735H23.9124L20.2386 26.1706L22.6979 32H19.9806L18.4777 28.3566L15.7755 32H13.0733ZM30.5669 21.3735H34.4379C35.5107 21.3735 36.3861 21.5557 37.0642 21.92C37.7423 22.2843 38.2432 22.7904 38.5671 23.4381C38.9011 24.0858 39.0681 24.8448 39.0681 25.7152C39.0681 26.626 38.9365 27.4306 38.6734 28.1289C38.4204 28.8171 38.0712 29.4092 37.6259 29.9051C37.1806 30.3908 36.6746 30.7906 36.1078 31.1043C35.5512 31.408 34.9693 31.6357 34.362 31.7875C33.7548 31.9292 33.1577 32 32.5707 32H28.6996L30.5669 21.3735ZM32.7832 29.9202C33.5018 29.9202 34.104 29.8089 34.5898 29.5863C35.0857 29.3636 35.4804 29.0651 35.7738 28.6906C36.0673 28.3161 36.2799 27.8911 36.4114 27.4154C36.543 26.9398 36.6088 26.4489 36.6088 25.9429C36.6088 25.0827 36.3861 24.4501 35.9408 24.0453C35.5057 23.6304 34.8428 23.4229 33.9522 23.4229H32.6011L31.4473 29.9202H32.7832ZM38.9631 32L44.6862 21.3735H47.4643L49.453 32H46.9178L46.5383 29.7229H42.652L41.4679 32H38.9631ZM43.5932 27.9164H46.265L45.6123 23.9998L43.5932 27.9164ZM51.1273 32L53.0248 21.3735H55.4082L53.9053 29.9202H58.247L57.8675 32H51.1273ZM60.0287 32L61.9263 21.3735H64.3097L62.8068 29.9202H67.1485L66.769 32H60.0287ZM68.2471 32L73.9702 21.3735H76.7483L78.737 32H76.2018L75.8223 29.7229H71.936L70.7519 32H68.2471ZM72.8772 27.9164H75.549L74.8962 23.9998L72.8772 27.9164ZM84.0144 32.1822C83.2857 32.1822 82.6481 32.0708 82.1016 31.8482C81.5551 31.6255 81.1301 31.3067 80.8264 30.8918C80.5329 30.4667 80.3862 29.9607 80.3862 29.3737C80.3862 29.2827 80.3913 29.1814 80.4014 29.0701C80.4115 28.9487 80.4216 28.8525 80.4317 28.7817H82.9973C82.9872 28.8424 82.9821 28.888 82.9821 28.9183C82.9821 28.9487 82.9821 28.9841 82.9821 29.0246C82.9821 29.3788 83.1035 29.6622 83.3464 29.8747C83.5893 30.0872 83.9132 30.1935 84.318 30.1935C84.7633 30.1935 85.1226 30.0771 85.3958 29.8443C85.6691 29.6014 85.8057 29.2928 85.8057 28.9183C85.8057 28.726 85.7652 28.5641 85.6843 28.4325C85.6134 28.2908 85.4869 28.1643 85.3048 28.053C85.1327 27.9417 84.8949 27.8253 84.5913 27.7039C84.2978 27.5824 83.9284 27.4458 83.4831 27.294C82.8151 27.0511 82.2939 26.7171 81.9195 26.292C81.545 25.8569 81.3578 25.3357 81.3578 24.7284C81.3578 24.02 81.5399 23.4027 81.9043 22.8764C82.2787 22.3501 82.7898 21.9402 83.4375 21.6467C84.0852 21.3431 84.824 21.1913 85.6539 21.1913C86.6457 21.1913 87.4452 21.4241 88.0525 21.8896C88.6698 22.3552 88.9785 23.013 88.9785 23.8631C88.9785 23.934 88.9734 24.0099 88.9633 24.0908C88.9633 24.1718 88.9582 24.2528 88.9481 24.3337H86.3674C86.3775 24.2831 86.3826 24.2376 86.3826 24.1971C86.3826 24.1566 86.3826 24.1263 86.3826 24.106C86.3826 23.8429 86.2814 23.6253 86.079 23.4533C85.8766 23.2812 85.5982 23.1952 85.244 23.1952C84.8392 23.1952 84.5204 23.3014 84.2876 23.514C84.065 23.7164 83.9537 23.9745 83.9537 24.2882C83.9537 24.5513 84.0397 24.7588 84.2117 24.9106C84.3838 25.0725 84.6166 25.2193 84.9101 25.3508C85.2036 25.4723 85.5325 25.6039 85.8968 25.7455C86.6457 25.9986 87.2479 26.3578 87.7033 26.8234C88.1689 27.2889 88.4016 27.881 88.4016 28.5995C88.4016 29.3282 88.2093 29.9607 87.8248 30.4971C87.4503 31.0335 86.9291 31.4484 86.2611 31.7419C85.6033 32.0354 84.8544 32.1822 84.0144 32.1822Z" fill="white"/>
</svg>
