<svg width="42" height="42" viewBox="0 0 42 42" fill="none" xmlns="http://www.w3.org/2000/svg">
<g clip-path="url(#clip0_82_188)">
<path d="M40.6 33.5999V8.39991C40.6 6.85354 39.3464 5.59993 37.8 5.59993H33.1898C31.6814 3.84331 29.8112 2.43343 27.7073 1.46686C25.6033 0.500297 23.3153 -0.00012207 21 -0.00012207C18.6847 -0.00012207 16.3967 0.500297 14.2927 1.46686C12.1888 2.43343 10.3186 3.84331 8.81024 5.59993H4.2C2.65363 5.59993 1.40003 6.85354 1.40003 8.39991V33.5999C0.626801 33.5999 0 34.2267 0 34.9999V37.0999C0.00311719 39.8048 2.19507 41.9968 4.89997 41.9999H37.0999C39.8048 41.9968 41.9969 39.8048 41.9999 37.0999V34.9999C42 34.2267 41.3732 33.5999 40.6 33.5999ZM21 1.39993C29.1186 1.39993 35.7 7.98138 35.7 16.0999C35.7 24.2185 29.1186 30.7999 21 30.7999C12.8815 30.7999 6.3 24.2185 6.3 16.0999C6.30927 7.98516 12.8852 1.40912 21 1.39993ZM2.79997 8.39991C2.79997 7.62668 3.42677 6.99988 4.2 6.99988H7.728C3.12498 13.703 4.24266 22.7862 10.3334 28.1734C16.4241 33.5605 25.5759 33.5606 31.6666 28.1734C37.7573 22.7861 38.875 13.703 34.272 6.99988H37.8C38.5732 6.99988 39.2 7.62668 39.2 8.39991V33.5999H2.79997V8.39991ZM14.7 34.9999H27.3V35.6999C27.3 36.4731 26.6732 37.0999 25.9 37.0999H16.1C15.3268 37.0999 14.7 36.4731 14.7 35.6999V34.9999ZM40.6 37.0999C40.5977 39.0319 39.032 40.5976 37.0999 40.6H4.89997C2.96797 40.5977 1.40232 39.032 1.39995 37.0999V34.9999H13.3V35.6999C13.3 37.2463 14.5536 38.4999 16.0999 38.4999H25.9C27.4463 38.4999 28.6999 37.2463 28.6999 35.6999V34.9999H40.6V37.0999Z" fill="#FF7003"/>
<path d="M11.2 36.3999H9.1C8.91435 36.3999 8.73631 36.4737 8.60504 36.6049C8.47377 36.7362 8.40002 36.9142 8.40002 37.0999C8.40002 37.2855 8.47377 37.4636 8.60504 37.5948C8.73631 37.7261 8.91435 37.7998 9.1 37.7998H11.2C11.5866 37.7998 11.9 37.4865 11.9 37.0999C11.9 36.7133 11.5866 36.3999 11.2 36.3999Z" fill="#FF7003"/>
<path d="M3.49996 37.8C3.88654 37.8 4.19993 37.4866 4.19993 37.1C4.19993 36.7134 3.88654 36.4 3.49996 36.4C3.11338 36.4 2.79999 36.7134 2.79999 37.1C2.79999 37.4866 3.11338 37.8 3.49996 37.8Z" fill="#FF7003"/>
<path d="M6.29995 37.8C6.68653 37.8 6.99992 37.4866 6.99992 37.1C6.99992 36.7134 6.68653 36.4 6.29995 36.4C5.91336 36.4 5.59998 36.7134 5.59998 37.1C5.59998 37.4866 5.91336 37.8 6.29995 37.8Z" fill="#FF7003"/>
<path d="M11.8545 24.927C12.1069 25.2191 12.4168 25.456 12.7648 25.6231C13.1129 25.7902 13.4916 25.8838 13.8774 25.898C14.2631 25.9123 14.6477 25.8469 15.0071 25.706C15.3665 25.565 15.6931 25.3516 15.9663 25.0789L20.9944 20.0557L26.0218 25.0831C27.1188 26.1556 28.8746 26.1456 29.9593 25.0607C31.044 23.9757 31.0537 22.2199 29.981 21.1232L26.3549 17.4999C27.8618 17.3911 29.2787 16.7418 30.3449 15.6715C31.1185 14.8953 31.678 13.9321 31.9691 12.8756C32.2602 11.8191 32.2729 10.7053 32.0061 9.64241C31.9538 9.43765 31.8481 9.2505 31.6996 9.10016C31.5511 8.94982 31.3652 8.84173 31.1611 8.78699C30.9551 8.73112 30.738 8.73043 30.5315 8.78498C30.3251 8.83954 30.1367 8.94742 29.9851 9.0978L27.8683 11.2139C27.7334 11.3485 27.5726 11.4543 27.3956 11.525C27.2187 11.5956 27.0292 11.6296 26.8387 11.6249C26.6482 11.6202 26.4606 11.5768 26.2873 11.4975C26.114 11.4182 25.9587 11.3045 25.8306 11.1634C25.3409 10.5619 25.3966 9.68482 25.9587 9.15022L27.9999 7.11461C28.1524 6.96154 28.2613 6.77059 28.3155 6.56141C28.3696 6.35224 28.367 6.13242 28.3079 5.92459C28.2532 5.72161 28.1448 5.53711 27.9941 5.39043C27.8435 5.24375 27.6562 5.14029 27.4519 5.0909C26.3884 4.82464 25.2741 4.83786 24.2172 5.12928C23.1603 5.42069 22.1967 5.98041 21.4199 6.75409C20.7742 7.39682 20.2768 8.17289 19.9624 9.028C19.648 9.88311 19.5243 10.7966 19.5999 11.7045L17.3956 9.50443L17.0513 8.45861C16.9868 8.26944 16.884 8.09563 16.7492 7.94808C16.6144 7.80052 16.4505 7.68241 16.268 7.60114L13.4869 6.42022C13.2284 6.31 12.9431 6.27917 12.6671 6.33165C12.3911 6.38414 12.137 6.51757 11.937 6.71496L11.6151 7.03693C11.4171 7.2373 11.2827 7.49172 11.2289 7.76822C11.1752 8.04472 11.2043 8.33095 11.3127 8.59093L12.5027 11.3665C12.5816 11.5512 12.6984 11.7173 12.8457 11.8539C12.9929 11.9906 13.1673 12.0947 13.3574 12.1595L14.4074 12.5096L17.5126 15.6099L12.0778 21.0342C11.0017 22.076 10.9046 23.769 11.8545 24.927ZM28.9913 24.0925C28.4366 24.6195 27.5663 24.6195 27.0117 24.0925L21.985 19.0658L23.8659 17.1871C23.9548 17.2172 24.0465 17.2319 24.1361 17.257L28.9913 22.1122C29.1213 22.2422 29.2245 22.3966 29.2949 22.5665C29.3653 22.7364 29.4015 22.9185 29.4015 23.1024C29.4015 23.2863 29.3653 23.4684 29.2949 23.6383C29.2245 23.8082 29.1213 23.9625 28.9913 24.0925ZM15.4 11.5171C15.244 11.3583 15.0518 11.2397 14.84 11.1713L13.79 10.8213L12.6056 8.02828L12.936 7.70836L15.7227 8.89838L16.0664 9.9442C16.139 10.1532 16.2588 10.3427 16.4164 10.4979L19.5223 13.6045L18.5024 14.6223L15.4 11.5171ZM13.069 22.024L21.21 13.8978C21.3093 13.7992 21.3767 13.6732 21.4036 13.5359C21.4306 13.3987 21.4158 13.2565 21.3612 13.1278C20.5735 11.2871 20.9898 9.15194 22.4112 7.74199C22.8706 7.28359 23.4159 6.92028 24.0159 6.67284C24.6158 6.4254 25.2587 6.29869 25.9077 6.29996C26.1932 6.30013 26.4782 6.32465 26.7596 6.37346L24.9704 8.15428C23.8704 9.21183 23.7922 10.9459 24.7926 12.0981C25.0473 12.3809 25.3572 12.6086 25.7032 12.7671C26.0492 12.9257 26.424 13.0117 26.8045 13.02C27.1849 13.0334 27.5639 12.9675 27.9174 12.8264C28.2708 12.6852 28.591 12.472 28.8575 12.2002L30.7251 10.334C30.8609 11.1143 30.8073 11.9158 30.5688 12.6711C30.3302 13.4263 29.9138 14.1132 29.3546 14.674C27.9422 16.0942 25.8068 16.5102 23.9645 15.724C23.8364 15.67 23.695 15.6554 23.5585 15.6821C23.4219 15.7088 23.2965 15.7755 23.198 15.8738L14.98 24.0884C14.8403 24.2203 14.6757 24.3231 14.4959 24.3908C14.3161 24.4585 14.1246 24.4897 13.9325 24.4826C13.7405 24.4755 13.5518 24.4302 13.3775 24.3495C13.2031 24.2687 13.0466 24.154 12.9171 24.0121C12.4447 23.4102 12.5107 22.5472 13.069 22.024Z" fill="#FF7003"/>
</g>
<defs>
<clipPath id="clip0_82_188">
<rect width="42" height="42" fill="white"/>
</clipPath>
</defs>
</svg>
