<svg width="42" height="42" viewBox="0 0 42 42" fill="none" xmlns="http://www.w3.org/2000/svg">
<g clip-path="url(#clip0_82_195)">
<path d="M40.5335 18.9H40.4796C39.4611 9.75647 32.2435 2.53887 23.1 1.52037V1.47C23.1 0.659531 22.444 0.00196875 21.6335 0H20.37C19.5581 0 18.9 0.658137 18.9 1.47V1.52389C9.7577 2.54207 2.54043 9.75786 1.52037 18.9H1.47C0.658137 18.9 0 19.5581 0 20.37V21.637C0.00385547 22.4461 0.660844 23.1 1.47 23.1H1.52389C2.54207 32.2423 9.75786 39.4596 18.9 40.4796V40.5335C18.9019 41.344 19.5595 42 20.37 42H21.637C22.4447 41.9961 23.098 41.3413 23.1 40.5335V40.4796C32.2435 39.4611 39.4611 32.2435 40.4796 23.1H40.5335C41.3427 23.0981 41.9981 22.4426 42 21.6335V20.37C42 19.5595 41.344 18.902 40.5335 18.9ZM23.1 2.94418C31.4629 3.94439 38.0556 10.5371 39.0558 18.9H37.6502C36.7088 11.2881 30.7119 5.29118 23.1 4.34979V2.94418ZM20.3191 1.41914C20.3258 1.41252 20.3337 1.40739 20.3425 1.4041C20.3513 1.4008 20.3607 1.39941 20.37 1.40003H21.637C21.6457 1.40039 21.6543 1.4025 21.6623 1.40624C21.6702 1.40997 21.6773 1.41525 21.6832 1.42177C21.6891 1.42828 21.6936 1.43591 21.6964 1.44419C21.6993 1.45247 21.7005 1.46125 21.7 1.47V8.337C21.7005 8.34605 21.6993 8.35512 21.6962 8.36365C21.6931 8.37218 21.6882 8.37997 21.682 8.38655C21.6758 8.39312 21.6682 8.39834 21.6599 8.40187C21.6515 8.4054 21.6425 8.40716 21.6334 8.40705H20.37C20.3609 8.40716 20.3519 8.4054 20.3436 8.40187C20.3352 8.39834 20.3277 8.39312 20.3214 8.38655C20.3152 8.37997 20.3104 8.37218 20.3073 8.36365C20.3042 8.35512 20.3029 8.34605 20.3035 8.337L20.2999 1.47C20.2993 1.46064 20.3007 1.45126 20.304 1.44249C20.3073 1.43372 20.3125 1.42575 20.3191 1.41914ZM18.9 2.94418V4.34979C11.2881 5.29118 5.29118 11.2881 4.34979 18.9H2.94418C3.94439 10.5371 10.5371 3.94439 18.9 2.94418ZM1.47 21.7C1.46095 21.7005 1.45188 21.6993 1.44335 21.6962C1.43482 21.6931 1.42703 21.6882 1.42045 21.682C1.41388 21.6758 1.40866 21.6682 1.40513 21.6599C1.4016 21.6515 1.39984 21.6425 1.39995 21.6334V20.37C1.39934 20.3607 1.40074 20.3513 1.40404 20.3425C1.40735 20.3338 1.41248 20.3258 1.4191 20.3192C1.42572 20.3126 1.43368 20.3074 1.44244 20.3041C1.45121 20.3008 1.46057 20.2994 1.46992 20.3H8.33692C8.34597 20.2994 8.35504 20.3007 8.36357 20.3038C8.37209 20.3069 8.37989 20.3118 8.38647 20.318C8.39304 20.3242 8.39826 20.3318 8.40179 20.3401C8.40532 20.3485 8.40708 20.3575 8.40697 20.3666V21.6335C8.40708 21.6426 8.40532 21.6516 8.40179 21.6599C8.39826 21.6683 8.39304 21.6758 8.38647 21.6821C8.37989 21.6883 8.37209 21.6931 8.36357 21.6962C8.35504 21.6993 8.34597 21.7006 8.33692 21.7001H1.47V21.7ZM18.9 39.0558C10.5371 38.0556 3.94439 31.4629 2.94418 23.1H4.34979C5.29118 30.7119 11.288 36.7088 18.9 37.6502V39.0558ZM21.7 40.5335C21.7001 40.5423 21.6984 40.551 21.6951 40.5591C21.6918 40.5672 21.6869 40.5746 21.6807 40.5808C21.6745 40.587 21.6671 40.5919 21.659 40.5952C21.6509 40.5985 21.6422 40.6002 21.6334 40.6001H20.37C20.3609 40.6006 20.3519 40.5993 20.3433 40.5962C20.3348 40.5931 20.327 40.5883 20.3205 40.5821C20.3139 40.5758 20.3087 40.5683 20.3051 40.5599C20.3016 40.5516 20.2998 40.5426 20.2999 40.5335V33.6701C20.2993 33.6607 20.3007 33.6513 20.304 33.6426C20.3073 33.6338 20.3125 33.6259 20.3191 33.6192C20.3257 33.6126 20.3337 33.6075 20.3424 33.6042C20.3512 33.6009 20.3606 33.5995 20.3699 33.6001H21.6369C21.6457 33.6004 21.6543 33.6026 21.6622 33.6063C21.6702 33.61 21.6773 33.6153 21.6831 33.6218C21.689 33.6284 21.6935 33.636 21.6964 33.6443C21.6993 33.6526 21.7005 33.6614 21.6999 33.6701L21.7 40.5335ZM21.6335 32.2H20.37C19.5581 32.2 18.9 32.8581 18.9 33.67V36.2432C12.0611 35.3191 6.68259 29.9392 5.76032 23.1H8.33355C9.14271 23.0981 9.79814 22.4426 9.80003 21.6335V20.37C9.80003 19.5595 9.14402 18.902 8.33355 18.9H5.76032C6.68407 12.0621 12.0621 6.68407 18.9 5.76032V8.33355C18.9019 9.14402 19.5595 9.80003 20.37 9.80003H21.637C22.4447 9.79617 23.098 9.14132 23.1 8.33355V5.76032C29.9379 6.68407 35.3159 12.0622 36.2397 18.9H33.67C32.8581 18.9 32.2 19.5581 32.2 20.37V21.637C32.2038 22.4461 32.8608 23.1 33.67 23.1H36.2389C35.3153 29.9376 29.9375 35.3157 23.0999 36.2397V33.67C23.1 32.8595 22.444 32.2019 21.6335 32.2ZM23.1 39.0558V37.6502C30.7119 36.7088 36.7088 30.712 37.6502 23.1H39.0558C38.0556 31.4629 31.4629 38.0556 23.1 39.0558ZM40.6 21.6335C40.6001 21.6423 40.5984 21.651 40.5951 21.6591C40.5918 21.6672 40.5869 21.6746 40.5807 21.6808C40.5745 21.687 40.5671 21.6919 40.559 21.6952C40.5509 21.6985 40.5422 21.7002 40.5334 21.7001H33.67C33.6609 21.7006 33.6518 21.6993 33.6433 21.6962C33.6348 21.6931 33.627 21.6883 33.6204 21.6821C33.6138 21.6758 33.6086 21.6683 33.6051 21.6599C33.6016 21.6516 33.5998 21.6426 33.5999 21.6335V20.37C33.5993 20.3607 33.6007 20.3513 33.604 20.3425C33.6073 20.3338 33.6125 20.3258 33.6191 20.3192C33.6257 20.3126 33.6337 20.3074 33.6424 20.3041C33.6512 20.3008 33.6605 20.2994 33.6699 20.3H40.5369C40.5457 20.3004 40.5543 20.3025 40.5622 20.3062C40.5701 20.31 40.5772 20.3152 40.5831 20.3218C40.589 20.3283 40.5935 20.3359 40.5964 20.3442C40.5992 20.3525 40.6004 20.3612 40.5999 20.37V21.6335H40.6Z" fill="#FF7003"/>
<path d="M25.6333 26.0856L27.9496 26.8556C28.1169 26.9113 28.257 27.0282 28.3419 27.1827C28.4268 27.3373 28.4502 27.5182 28.4075 27.6893L28.0218 29.2292C27.9994 29.3184 27.9949 29.4111 28.0083 29.502C28.0218 29.593 28.0531 29.6803 28.1004 29.7592C28.1476 29.838 28.2099 29.9068 28.2838 29.9616C28.3576 30.0163 28.4415 30.056 28.5307 30.0783C28.586 30.0926 28.6429 30.0999 28.7001 30.1001C28.856 30.0999 29.0074 30.0477 29.1303 29.9517C29.2532 29.8557 29.3405 29.7214 29.3784 29.5702L29.7641 28.0302C30.0254 26.9666 29.429 25.8799 28.3914 25.5291L25.8896 24.6954C25.8896 24.631 25.8994 24.568 25.8994 24.5028V23.1H28.6993C28.885 23.1 29.063 23.0263 29.1943 22.895C29.3256 22.7637 29.3993 22.5857 29.3993 22.4001C29.3993 22.2144 29.3256 22.0364 29.1943 21.9051C29.063 21.7738 28.885 21.7001 28.6993 21.7001H25.9V20.1048L28.3913 19.2739C29.4295 18.9234 30.0264 17.8362 29.7647 16.7721L29.379 15.2322C29.3498 15.1122 29.2894 15.0022 29.204 14.9131C29.1185 14.824 29.0111 14.7591 28.8925 14.7249C28.7739 14.6908 28.6483 14.6886 28.5286 14.7185C28.4089 14.7485 28.2992 14.8096 28.2107 14.8956C28.1222 14.9816 28.058 15.0896 28.0247 15.2084C27.9914 15.3273 27.9901 15.4528 28.0209 15.5723L28.4066 17.1123C28.4496 17.2835 28.4262 17.4646 28.3414 17.6193C28.2565 17.774 28.1163 17.891 27.9488 17.9467L25.8999 18.6285V17.5001C25.8995 16.8081 25.7521 16.1242 25.4674 15.4935C25.1828 14.8629 24.7673 14.2999 24.2486 13.8419L25.6949 12.395C25.8224 12.263 25.8929 12.0862 25.8913 11.9027C25.8897 11.7191 25.8161 11.5436 25.6863 11.4138C25.5565 11.284 25.381 11.2104 25.1974 11.2088C25.0139 11.2072 24.8371 11.2777 24.7051 11.4052L23.053 13.0573C22.4105 12.7562 21.7095 12.6001 20.9999 12.6001C20.2903 12.6001 19.5894 12.7562 18.9468 13.0573L17.2948 11.4052C17.1628 11.2777 16.9859 11.2072 16.8024 11.2088C16.6189 11.2104 16.4433 11.284 16.3135 11.4138C16.1837 11.5436 16.1101 11.7191 16.1085 11.9027C16.1069 12.0862 16.1775 12.263 16.305 12.395L17.7512 13.8419C17.2325 14.2999 16.8171 14.8629 16.5324 15.4935C16.2477 16.1242 16.1003 16.8081 16.0999 17.5001V18.6285L14.051 17.946C13.8837 17.8903 13.7436 17.7734 13.6588 17.6189C13.5739 17.4643 13.5505 17.2834 13.5932 17.1123L13.9789 15.5723C14.0225 15.3928 13.9933 15.2033 13.8977 15.0452C13.8022 14.8871 13.648 14.7732 13.4688 14.7283C13.2896 14.6834 13.0999 14.7112 12.9411 14.8055C12.7822 14.8999 12.6672 15.0533 12.621 15.2322L12.2353 16.7721C11.974 17.8358 12.5703 18.9224 13.608 19.2733L16.1 20.1049V21.7002H13.3C13.1144 21.7002 12.9363 21.7739 12.8051 21.9052C12.6738 22.0365 12.6 22.2145 12.6 22.4001C12.6 22.5858 12.6738 22.7638 12.8051 22.8951C12.9363 23.0264 13.1144 23.1001 13.3 23.1001H16.1V24.5001C16.1 24.5653 16.107 24.6283 16.1098 24.6927L13.6087 25.5263C12.5705 25.8769 11.9737 26.964 12.2353 28.0281L12.621 29.5681C12.6432 29.6575 12.6827 29.7417 12.7374 29.8158C12.7921 29.8899 12.8609 29.9525 12.9399 30C13.0188 30.0475 13.1063 30.0789 13.1974 30.0925C13.2886 30.106 13.3815 30.1015 13.4708 30.0791C13.6509 30.034 13.8057 29.9191 13.9011 29.7599C13.9965 29.6007 14.0248 29.4101 13.9797 29.23L13.594 27.69C13.5511 27.5188 13.5744 27.3377 13.6593 27.183C13.7442 27.0283 13.8844 26.9113 14.0518 26.8556L16.3682 26.0856C17.0426 28.0694 18.9054 29.4036 21.0008 29.4036C23.0961 29.4036 24.9589 28.0694 25.6333 26.0856ZM21 13.9965C22.6645 13.9965 24.0988 15.1688 24.43 16.8H17.57C17.9013 15.1688 19.3355 13.9965 21 13.9965ZM21.7 27.93V21.7C21.7 21.3134 21.3867 21 21 21C20.6134 21 20.3001 21.3134 20.3001 21.7V27.93C18.6716 27.5951 17.5022 26.1626 17.5001 24.5001V18.2001H24.5001V24.5001C24.4979 26.1626 23.3285 27.5951 21.7 27.93Z" fill="#FF7003"/>
</g>
<defs>
<clipPath id="clip0_82_195">
<rect width="42" height="42" fill="white"/>
</clipPath>
</defs>
</svg>
