<svg width="42" height="42" viewBox="0 0 42 42" fill="none" xmlns="http://www.w3.org/2000/svg">
<g clip-path="url(#clip0_82_163)">
<path d="M12.6033 16.8048H10.5036C10.318 16.8048 10.14 16.8785 10.0088 17.0098C9.87754 17.141 9.8038 17.319 9.8038 17.5047V19.6043C9.8038 19.7899 9.87754 19.9679 10.0088 20.0991C10.14 20.2304 10.318 20.3041 10.5036 20.3041C10.6893 20.3041 10.8673 20.2304 10.9985 20.0991C11.1298 19.9679 11.2035 19.7899 11.2035 19.6043V18.2045H12.6033C12.7889 18.2045 12.9669 18.1308 13.0981 17.9995C13.2294 17.8683 13.3031 17.6903 13.3031 17.5047C13.3031 17.319 13.2294 17.141 13.0981 17.0098C12.9669 16.8785 12.7889 16.8048 12.6033 16.8048Z" fill="#FF7003"/>
<path d="M40.5595 0.894584C38.9191 -0.461631 36.4944 -0.252655 35.1102 1.36421L28.0003 9.5849V9.10618C27.9946 7.94901 27.0578 7.01231 25.9007 7.00657C24.7411 7.00657 23.8011 7.94664 23.8011 9.10618V10.7754C23.3303 10.801 22.8623 10.8635 22.4013 10.9622V9.10618C22.3956 7.94901 21.4589 7.01231 20.3017 7.00657C19.1422 7.00657 18.2021 7.94664 18.2021 9.10618V11.2058H16.8023V9.10618C16.8023 7.94664 15.8623 7.00657 14.7027 7.00657C13.5431 7.00657 12.6031 7.94664 12.6031 9.10618V11.2058H11.2034V9.10618C11.2034 7.94664 10.2634 7.00657 9.10384 7.00657C7.94429 7.00657 7.00423 7.94664 7.00423 9.10618V11.2058C5.45815 11.2058 4.20478 12.4591 4.20478 14.0052H2.10518C0.945635 14.0052 0.00556946 14.9453 0.00556946 16.1048C0.00556946 17.2645 0.945635 18.2044 2.10518 18.2044H4.20478V19.6042H2.10518C0.945635 19.6042 0.00556946 20.5443 0.00556946 21.7038C0.00556946 22.8634 0.945635 23.8034 2.10518 23.8034H4.20478V25.2032H2.10518C0.945635 25.2032 0.00556946 26.1433 0.00556946 27.3028C0.00556946 28.4623 0.945635 29.4024 2.10518 29.4024H4.20478V30.8022H2.10518C0.945635 30.8022 0.00556946 31.7422 0.00556946 32.9018C0.00556946 34.0613 0.945635 35.0014 2.10518 35.0014H4.20478C4.20478 36.5475 5.45815 37.8008 7.00423 37.8008V39.9004C7.00423 41.06 7.94429 42 9.10384 42C10.2634 42 11.2034 41.06 11.2034 39.9004V37.8008H12.6032V39.9004C12.6032 41.06 13.5433 42 14.7028 42C15.8624 42 16.8024 41.06 16.8024 39.9004V37.8008H18.2022V39.9004C18.2022 41.06 19.1422 42 20.3018 42C21.4613 42 22.4014 41.06 22.4014 39.9004V37.8008H23.8011V39.9004C23.8011 41.06 24.7411 42 25.9007 42C27.0602 42 28.0003 41.06 28.0003 39.9004V37.8008C29.5464 37.8008 30.7997 36.5475 30.7997 35.0014H32.8993C34.0589 35.0014 34.999 34.0613 34.999 32.9018C34.999 31.7422 34.0589 30.8022 32.8993 30.8022H30.7997V29.4024H32.8993C34.0589 29.4024 34.999 28.4623 34.999 27.3028C34.999 26.1433 34.0589 25.2032 32.8993 25.2032H31.6354C33.5537 22.5999 33.9368 19.1709 32.6404 16.2085L41.0388 6.49504C41.3817 6.09886 41.6416 5.63797 41.8032 5.13961C41.9649 4.64125 42.025 4.11553 41.98 3.59355C41.9349 3.07157 41.7857 2.56391 41.5411 2.10059C41.2965 1.63727 40.9615 1.22769 40.5559 0.89606L40.5595 0.894584ZM25.9007 8.40633C25.994 8.40604 26.0863 8.4249 26.1721 8.46173C26.2578 8.49857 26.335 8.5526 26.399 8.62048C26.4636 8.68366 26.5148 8.75926 26.5494 8.84272C26.5841 8.92619 26.6015 9.01581 26.6006 9.10618V11.0532C26.1412 10.9339 25.6732 10.8508 25.2008 10.8048V9.10626C25.2008 9.01435 25.2189 8.92333 25.2541 8.83842C25.2893 8.7535 25.3408 8.67634 25.4058 8.61134C25.4708 8.54635 25.5479 8.49479 25.6328 8.45961C25.7178 8.42444 25.8088 8.40633 25.9007 8.40633ZM19.6019 9.10618C19.6019 8.92057 19.6756 8.74256 19.8068 8.61131C19.9381 8.48007 20.1161 8.40633 20.3017 8.40633C20.395 8.40604 20.4874 8.4249 20.5731 8.46173C20.6588 8.49857 20.736 8.5526 20.8 8.62048C20.8647 8.68366 20.9158 8.75926 20.9505 8.84272C20.9851 8.92619 21.0025 9.01581 21.0016 9.10618V11.2058H19.6019V9.10618ZM14.003 9.10618C14.003 8.92057 14.0767 8.74256 14.2079 8.61131C14.3392 8.48007 14.5172 8.40633 14.7028 8.40633C14.8884 8.40633 15.0664 8.48007 15.1977 8.61131C15.3289 8.74256 15.4027 8.92057 15.4027 9.10618V11.2058H14.0029L14.003 9.10618ZM8.40399 9.10618C8.40399 8.92057 8.47773 8.74256 8.60897 8.61131C8.74022 8.48007 8.91823 8.40633 9.10384 8.40633C9.28944 8.40633 9.46745 8.48007 9.5987 8.61131C9.72994 8.74256 9.80368 8.92057 9.80368 9.10618V11.2058H8.40391L8.40399 9.10618ZM2.10518 16.8048C1.91957 16.8048 1.74156 16.731 1.61031 16.5998C1.47907 16.4685 1.40533 16.2905 1.40533 16.1049C1.40533 15.9193 1.47907 15.7413 1.61031 15.6101C1.74156 15.4788 1.91957 15.4051 2.10518 15.4051H4.20478V16.8048H2.10518V16.8048ZM2.10518 22.4037C1.91957 22.4037 1.74156 22.3299 1.61031 22.1987C1.47907 22.0674 1.40533 21.8894 1.40533 21.7038C1.40533 21.5182 1.47907 21.3402 1.61031 21.209C1.74156 21.0777 1.91957 21.004 2.10518 21.004H4.20478V22.4037H2.10518V22.4037ZM2.10518 28.0026C1.91957 28.0026 1.74156 27.9289 1.61031 27.7977C1.47907 27.6664 1.40533 27.4884 1.40533 27.3028C1.40533 27.1172 1.47907 26.9392 1.61031 26.8079C1.74156 26.6767 1.91957 26.603 2.10518 26.603H4.20478V28.0027H2.10518V28.0026ZM2.10518 33.6016C1.91957 33.6016 1.74156 33.5279 1.61031 33.3966C1.47907 33.2654 1.40533 33.0874 1.40533 32.9018C1.40533 32.7162 1.47907 32.5382 1.61031 32.4069C1.74156 32.2757 1.91957 32.2019 2.10518 32.2019H4.20478V33.6017L2.10518 33.6016ZM9.80376 39.9004C9.80376 40.086 9.73003 40.264 9.59878 40.3953C9.46753 40.5265 9.28953 40.6003 9.10392 40.6003C8.91831 40.6003 8.7403 40.5265 8.60905 40.3953C8.47781 40.264 8.40408 40.086 8.40408 39.9004V37.8008H9.80384V39.9004H9.80376ZM15.4027 39.9004C15.4027 40.086 15.3289 40.264 15.1977 40.3953C15.0664 40.5265 14.8884 40.6003 14.7028 40.6003C14.5172 40.6003 14.3392 40.5265 14.2079 40.3953C14.0767 40.264 14.003 40.086 14.003 39.9004V37.8008H15.4027V39.9004ZM21.0016 39.9004C20.9996 40.0847 20.925 40.2608 20.794 40.3904C20.6629 40.5201 20.4861 40.5928 20.3017 40.5928C20.1174 40.5928 19.9405 40.5201 19.8095 40.3904C19.6785 40.2608 19.6039 40.0847 19.6019 39.9004V37.8008H21.0016V39.9004ZM26.6006 39.9004C26.6006 40.086 26.5269 40.264 26.3956 40.3953C26.2644 40.5265 26.0864 40.6003 25.9008 40.6003C25.7152 40.6003 25.5372 40.5265 25.4059 40.3953C25.2747 40.264 25.2009 40.086 25.2009 39.9004V37.8008H26.6007L26.6006 39.9004ZM29.4001 35.0013C29.4001 35.7744 28.7734 36.4011 28.0003 36.4011H7.00423C6.23115 36.4011 5.60446 35.7744 5.60446 35.0013V14.0052C5.60446 13.2321 6.23115 12.6055 7.00423 12.6055H18.832C18.3296 12.9873 17.8682 13.4203 17.4553 13.8975C17.4252 13.9317 17.4015 13.9674 17.3728 14.0052H7.70415C7.51854 14.0052 7.34054 14.079 7.20929 14.2102C7.07804 14.3415 7.00431 14.5195 7.00431 14.7051V34.3014C7.00431 34.487 7.07804 34.665 7.20929 34.7962C7.34054 34.9275 7.51854 35.0012 7.70415 35.0012H27.3005C27.4861 35.0012 27.6641 34.9275 27.7953 34.7962C27.9266 34.665 28.0003 34.487 28.0003 34.3014V28.123C28.4892 27.9031 28.9576 27.6403 29.4001 27.3377V35.0013ZM15.4902 21.9278C15.547 22.1719 15.6704 22.3954 15.8467 22.5735C16.0231 22.7515 16.2454 22.8772 16.4889 22.9364C16.7282 22.995 16.9791 22.9863 17.2138 22.9112C17.4485 22.8361 17.6578 22.6976 17.8186 22.5109L21.7098 18.0114L25.83 18.087L26.4991 22.1539L22.6113 26.6527C22.4487 26.8384 22.341 27.0658 22.3004 27.3093C22.2597 27.5529 22.2877 27.8029 22.3811 28.0314C22.4752 28.2633 22.6318 28.4645 22.8335 28.6127C23.0351 28.761 23.2738 28.8505 23.5232 28.8713C23.7892 28.895 24.0544 28.9063 24.3197 28.9063C25.0897 28.903 25.8562 28.8014 26.6005 28.604V33.6018H8.40399V15.405H16.4154C15.3018 17.3869 14.9716 19.7144 15.4902 21.9278ZM32.8994 32.2018C33.085 32.2018 33.263 32.2756 33.3943 32.4068C33.5255 32.5381 33.5993 32.7161 33.5993 32.9017C33.5993 33.0873 33.5255 33.2653 33.3943 33.3966C33.263 33.5278 33.085 33.6015 32.8994 33.6015H30.7998V32.2018H32.8994V32.2018ZM33.5993 27.3028C33.5993 27.4884 33.5255 27.6664 33.3943 27.7977C33.263 27.9289 33.085 28.0026 32.8994 28.0026H30.7998V26.6029H32.8994C32.9913 26.6029 33.0823 26.621 33.1673 26.6561C33.2522 26.6913 33.3293 26.7429 33.3943 26.8079C33.4593 26.8729 33.5109 26.95 33.546 27.035C33.5812 27.1199 33.5993 27.2109 33.5993 27.3028ZM39.9835 5.57884L31.2848 15.636C31.1945 15.7404 31.1372 15.8693 31.12 16.0063C31.1028 16.1433 31.1265 16.2823 31.1882 16.4058C31.7947 17.6203 32.0683 18.9738 31.981 20.3285C31.8937 21.6832 31.4487 22.9904 30.6913 24.117C29.9339 25.2435 28.8913 26.1491 27.6698 26.7412C26.4483 27.3333 25.0915 27.5908 23.738 27.4875L27.7734 22.8236C27.8406 22.7459 27.8898 22.6544 27.9176 22.5556C27.9454 22.4568 27.9512 22.3531 27.9344 22.2518L27.1184 17.2848C27.0919 17.1231 27.0094 16.9759 26.8855 16.8687C26.7616 16.7615 26.604 16.7012 26.4402 16.6983L21.4095 16.606C21.3068 16.6035 21.2048 16.624 21.111 16.6659C21.0172 16.7078 20.9339 16.77 20.8671 16.8481L16.831 21.5142C16.5336 20.1897 16.5929 18.8101 17.0027 17.516C17.4124 16.222 18.1581 15.0597 19.1636 14.1478C20.1691 13.2359 21.3985 12.607 22.7264 12.3253C24.0542 12.0435 25.4331 12.119 26.7222 12.544C26.8534 12.5872 26.9944 12.5907 27.1275 12.5539C27.2607 12.5172 27.38 12.4419 27.4704 12.3375L36.1692 2.27967C37.0802 1.22642 38.6726 1.11111 39.7259 2.02214C40.7792 2.93317 40.8945 4.52551 39.9835 5.57884Z" fill="#FF7003"/>
<path d="M37.2671 3.75146L35.9822 5.24989C35.8679 5.39163 35.8133 5.57234 35.8301 5.75366C35.8468 5.93498 35.9336 6.10263 36.0719 6.22103C36.2103 6.33943 36.3893 6.39925 36.571 6.3878C36.7528 6.37634 36.9229 6.29452 37.0453 6.15969L38.3296 4.66126C38.4417 4.51936 38.4945 4.33958 38.477 4.15959C38.4595 3.9796 38.373 3.81338 38.2356 3.69576C38.0982 3.57813 37.9207 3.51824 37.7401 3.52862C37.5596 3.53901 37.3901 3.61886 37.2671 3.75146Z" fill="#FF7003"/>
</g>
<defs>
<clipPath id="clip0_82_163">
<rect width="42" height="42" fill="white"/>
</clipPath>
</defs>
</svg>
