<svg width="42" height="42" viewBox="0 0 42 42" fill="none" xmlns="http://www.w3.org/2000/svg">
<g clip-path="url(#clip0_82_199)">
<path d="M0.0395597 12.1702C-0.0265855 12.4985 -0.0114802 12.838 0.0835603 13.1591C0.178601 13.4802 0.350695 13.7732 0.58486 14.0126L3.92876 17.5L0.59186 20.9811C0.356527 21.2196 0.183047 21.5121 0.0865121 21.833C-0.0100226 22.1539 -0.0266874 22.4935 0.0379674 22.8223C0.102622 23.1511 0.246638 23.4591 0.457486 23.7195C0.668333 23.9799 0.939625 24.1849 1.24776 24.3166L4.19966 25.5626V33.81C4.20099 34.2126 4.32132 34.6058 4.54551 34.9402C4.76969 35.2747 5.08774 35.5353 5.45966 35.6895L20.1947 41.825C20.4493 41.9411 20.7261 42.0008 21.006 42C21.2716 42.0003 21.5342 41.9435 21.776 41.8334L36.5397 35.6895C36.9116 35.5354 37.2297 35.2748 37.4539 34.9403C37.6781 34.6059 37.7984 34.2126 37.7997 33.81V25.5626L40.7516 24.3173C41.059 24.1858 41.3297 23.9813 41.5403 23.7217C41.7509 23.462 41.8951 23.1549 41.9604 22.827C42.0257 22.4991 42.0101 22.1602 41.915 21.8397C41.8198 21.5191 41.6481 21.2266 41.4145 20.9874L38.0692 17.5L41.4054 14.0168C41.6411 13.7786 41.8151 13.4865 41.912 13.1657C42.009 12.8449 42.0261 12.5053 41.9618 12.1764C41.8974 11.8475 41.7537 11.5394 41.543 11.2788C41.3323 11.0182 41.0611 10.8131 40.753 10.6813L27.4257 5.0603C27.0563 4.90262 26.6482 4.85896 26.2538 4.93492C25.8594 5.01088 25.4967 5.203 25.2123 5.4866L24.4997 6.1698V1.4C24.4997 1.0287 24.3522 0.672601 24.0896 0.410051C23.8271 0.1475 23.471 0 23.0997 0L18.8997 0C18.5284 0 18.1723 0.1475 17.9097 0.410051C17.6472 0.672601 17.4997 1.0287 17.4997 1.4V6.174L16.7997 5.5027C16.5163 5.21384 16.1525 5.01706 15.7557 4.93802C15.3589 4.85898 14.9474 4.90135 14.5751 5.0596L1.24776 10.6827C0.940145 10.813 0.669163 11.0168 0.458534 11.2761C0.247905 11.5354 0.104049 11.8424 0.0395597 12.1702ZM17.4997 14.7H16.8417C16.5566 14.6991 16.2777 14.783 16.0405 14.941C15.8032 15.099 15.6183 15.3239 15.5091 15.5872C15.3999 15.8505 15.3715 16.1404 15.4274 16.4199C15.4834 16.6994 15.6211 16.9559 15.8232 17.157L19.9805 21.28C20.2512 21.549 20.6173 21.7001 20.999 21.7001C21.3806 21.7001 21.7468 21.549 22.0175 21.28L26.1748 17.1584C26.3772 16.9575 26.5154 16.7009 26.5716 16.4213C26.6278 16.1417 26.5996 15.8517 26.4906 15.5881C26.3816 15.3246 26.1966 15.0994 25.9593 14.9413C25.7219 14.7831 25.4429 14.6991 25.1577 14.7H24.4997V12.7855L35.3448 17.5L20.9997 23.7363L6.65456 17.5L17.4997 12.7855V14.7ZM1.41296 22.5568C1.39074 22.4496 1.39576 22.3385 1.42756 22.2337C1.45935 22.1289 1.5169 22.0337 1.59496 21.9569L5.06696 18.34L19.7558 24.7261L15.8029 28.5159C15.7161 28.605 15.6046 28.6659 15.4828 28.6909C15.361 28.7158 15.2345 28.7037 15.1197 28.6559L1.79236 23.03C1.6947 22.989 1.60884 22.9242 1.54258 22.8416C1.47632 22.7589 1.43176 22.661 1.41296 22.5568ZM6.00286 34.3994C5.8844 34.3528 5.78266 34.2717 5.71078 34.1666C5.6389 34.0615 5.60019 33.9373 5.59966 33.81V26.1534L14.5744 29.9404C14.8245 30.047 15.0935 30.102 15.3654 30.1021C15.6295 30.1025 15.8912 30.0504 16.135 29.9487C16.3789 29.8471 16.6 29.6979 16.7857 29.5099L20.2997 26.1408V40.3508L6.00286 34.3994ZM36.3997 33.81C36.399 33.9368 36.3605 34.0606 36.289 34.1653C36.2175 34.2701 36.1164 34.3511 35.9986 34.398L21.6997 40.3522V26.1422L25.1997 29.5022C25.4827 29.7915 25.8465 29.9885 26.2435 30.0676C26.6404 30.1467 27.052 30.104 27.4243 29.9453L36.3997 26.1534V33.81ZM40.5864 22.5561C40.5671 22.6598 40.5224 22.7572 40.4561 22.8393C40.3899 22.9214 40.3043 22.9857 40.207 23.0265L26.8797 28.6517C26.7618 28.6997 26.6322 28.7109 26.5079 28.6837C26.3835 28.6566 26.2703 28.5925 26.1832 28.4998L22.2443 24.7198L36.9324 18.34L40.4107 21.9674C40.4864 22.0434 40.5421 22.1371 40.5728 22.24C40.6034 22.3428 40.6081 22.451 40.5864 22.5561ZM26.1916 6.4869C26.2792 6.39728 26.3916 6.33602 26.5144 6.31106C26.6373 6.2861 26.7647 6.29859 26.8804 6.3469L40.207 11.97C40.3044 12.0106 40.3903 12.0749 40.4566 12.157C40.523 12.2392 40.5678 12.3366 40.5871 12.4404C40.6086 12.5477 40.603 12.6587 40.5709 12.7633C40.5387 12.8679 40.481 12.9629 40.403 13.0396L36.9317 16.6642L24.4997 11.2595V8.1095L26.1916 6.4869ZM18.8997 1.4H23.0997V14.7H22.3997C22.214 14.7 22.036 14.7737 21.9047 14.905C21.7734 15.0363 21.6997 15.2143 21.6997 15.4C21.6997 15.5857 21.7734 15.7637 21.9047 15.895C22.036 16.0263 22.214 16.1 22.3997 16.1H23.7997L25.1997 16.149C25.1965 16.1535 25.193 16.1577 25.1892 16.1616L20.9668 20.2846L16.8088 16.1616L16.8417 16.1H19.5997C19.7853 16.1 19.9634 16.0263 20.0946 15.895C20.2259 15.7637 20.2997 15.5857 20.2997 15.4C20.2997 15.2143 20.2259 15.0363 20.0946 14.905C19.9634 14.7737 19.7853 14.7 19.5997 14.7H18.8997V1.4ZM1.41296 12.4432C1.43219 12.3395 1.47694 12.2421 1.54318 12.16C1.60941 12.0779 1.69505 12.0136 1.79236 11.9728L15.1197 6.3483C15.238 6.29954 15.3683 6.28795 15.4933 6.31509C15.6184 6.34222 15.7322 6.40679 15.8197 6.5002L17.4997 8.1144V11.2595L5.06696 16.6642L1.58866 13.0361C1.51235 12.9597 1.45632 12.8655 1.42564 12.7619C1.39496 12.6584 1.3906 12.5488 1.41296 12.4432Z" fill="#FF7003"/>
</g>
<defs>
<clipPath id="clip0_82_199">
<rect width="42" height="42" fill="white"/>
</clipPath>
</defs>
</svg>
