<svg width="42" height="42" viewBox="0 0 42 42" fill="none" xmlns="http://www.w3.org/2000/svg">
<path d="M16.5886 30.7354H25.4073C25.9403 30.7348 26.4513 30.5227 26.8282 30.1457C27.2051 29.7688 27.4171 29.2577 27.4177 28.7247V17.1478C27.4138 16.987 27.3463 16.8343 27.23 16.7232L23.8267 13.6257C23.7195 13.5318 23.5826 13.4788 23.4402 13.4761H16.7969C16.2097 13.4768 15.6468 13.7103 15.2316 14.1256C14.8164 14.5408 14.5828 15.1037 14.5821 15.6909V28.7247C14.5821 29.2572 14.7934 29.768 15.1695 30.145C15.5457 30.522 16.056 30.7343 16.5886 30.7354ZM25.3594 16.5736H24.014V15.3493L25.3594 16.5736ZM15.7305 15.6909C15.7309 15.4082 15.8433 15.1372 16.0433 14.9372C16.2432 14.7373 16.5142 14.6249 16.7969 14.6245H22.8672V17.1478C22.8672 17.3001 22.9277 17.4461 23.0354 17.5538C23.1431 17.6615 23.2892 17.722 23.4415 17.722H26.2706V28.7247C26.2703 28.9533 26.1794 29.1724 26.0178 29.334C25.8562 29.4957 25.6371 29.5867 25.4086 29.587H16.5886C16.3605 29.5862 16.1421 29.495 15.9812 29.3333C15.8203 29.1717 15.7302 28.9528 15.7305 28.7247V15.6909Z" fill="#FF7003"/>
<path d="M18.1035 20.0275H23.8963C24.0486 20.0275 24.1946 19.967 24.3023 19.8593C24.41 19.7516 24.4705 19.6055 24.4705 19.4532C24.4705 19.301 24.41 19.1549 24.3023 19.0472C24.1946 18.9395 24.0486 18.879 23.8963 18.879H18.1035C17.9513 18.879 17.8052 18.9395 17.6975 19.0472C17.5898 19.1549 17.5293 19.301 17.5293 19.4532C17.5293 19.6055 17.5898 19.7516 17.6975 19.8593C17.8052 19.967 17.9513 20.0275 18.1035 20.0275ZM18.1035 22.9927H23.8963C24.0486 22.9927 24.1946 22.9322 24.3023 22.8245C24.41 22.7169 24.4705 22.5708 24.4705 22.4185C24.4705 22.2662 24.41 22.1202 24.3023 22.0125C24.1946 21.9048 24.0486 21.8443 23.8963 21.8443H18.1035C17.9513 21.8443 17.8052 21.9048 17.6975 22.0125C17.5898 22.1202 17.5293 22.2662 17.5293 22.4185C17.5293 22.5708 17.5898 22.7169 17.6975 22.8245C17.8052 22.9322 17.9513 22.9927 18.1035 22.9927ZM18.1035 25.9587H22.1707C22.3229 25.9587 22.469 25.8982 22.5767 25.7905C22.6844 25.6828 22.7449 25.5367 22.7449 25.3844C22.7449 25.2321 22.6844 25.0861 22.5767 24.9784C22.469 24.8707 22.3229 24.8102 22.1707 24.8102H18.1035C17.9513 24.8102 17.8052 24.8707 17.6975 24.9784C17.5898 25.0861 17.5293 25.2321 17.5293 25.3844C17.5293 25.5367 17.5898 25.6828 17.6975 25.7905C17.8052 25.8982 17.9513 25.9587 18.1035 25.9587Z" fill="#FF7003"/>
<path d="M23.9322 4.80573C23.7638 4.77685 23.5947 4.75038 23.4249 4.72632V2.92032C23.4236 2.82117 23.3968 2.72402 23.3471 2.63821C23.2974 2.5524 23.2265 2.48081 23.1412 2.43033C23.0558 2.37985 22.9589 2.35216 22.8598 2.34994C22.7607 2.34771 22.6626 2.37103 22.5751 2.41763L14.997 6.59762C14.9081 6.64806 14.8342 6.72118 14.7827 6.80951C14.7313 6.89785 14.7042 6.99825 14.7042 7.10047C14.7042 7.20269 14.7313 7.30309 14.7827 7.39142C14.8342 7.47976 14.9081 7.55287 14.997 7.60332L22.5751 11.7797C22.6624 11.8276 22.7606 11.8519 22.8602 11.8503C22.9598 11.8487 23.0572 11.8213 23.1429 11.7706C23.2287 11.72 23.2997 11.6479 23.3492 11.5615C23.3986 11.475 23.4247 11.3772 23.4249 11.2777V9.21244C33.7609 11.1018 37.7702 24.2599 30.1223 31.5249C22.2141 39.3094 8.59696 33.9718 7.9079 22.9507C7.68644 19.5722 8.78572 16.2398 10.9739 13.6562C11.1809 13.4121 11.332 13.1258 11.4169 12.8172C11.5017 12.5086 11.5181 12.1852 11.465 11.8696C11.4119 11.554 11.2905 11.2538 11.1093 10.99C10.9281 10.7262 10.6916 10.5051 10.4161 10.3422C9.95488 10.0749 9.41403 9.97934 8.88916 10.0723C8.36429 10.1654 7.88922 10.441 7.54794 10.8504C1.68894 17.5987 2.22083 28.5111 8.75905 34.6559C15.2612 41.2243 26.5884 41.2962 33.1387 34.7665C43.5318 24.9582 38.0518 7.07438 23.9322 4.80573ZM32.3434 33.938C22.3588 43.5553 5.58083 37.005 4.63715 23.2162C4.3479 18.9951 5.70716 14.8264 8.42896 11.5871C8.53364 11.4614 8.66468 11.3603 8.81279 11.2909C8.9609 11.2215 9.12246 11.1855 9.28602 11.1855C9.48737 11.1833 9.6851 11.239 9.85565 11.3461C10.0262 11.4531 10.1624 11.607 10.2479 11.7893C10.3335 11.9715 10.3648 12.1746 10.3382 12.3742C10.3116 12.5738 10.2281 12.7615 10.0978 12.915C2.40754 21.8807 8.76561 36.0061 20.5407 36.3654C22.4524 36.4301 24.3574 36.1076 26.1413 35.4175C27.9252 34.7273 29.5512 33.6836 30.9216 32.3492C39.4709 24.2156 34.5874 9.49135 22.9239 7.97344C22.8432 7.9636 22.7614 7.9709 22.6837 7.99486C22.6061 8.01882 22.5343 8.0589 22.4732 8.11248C22.4121 8.16606 22.363 8.23193 22.3291 8.30579C22.2952 8.37965 22.2773 8.45984 22.2765 8.5411V10.3054L16.4631 7.1003L22.2765 3.89288V5.2336C22.2765 5.37522 22.3288 5.51185 22.4234 5.61723C22.518 5.72262 22.6482 5.78932 22.789 5.80454C36.5335 7.21876 42.3758 24.4493 32.3434 33.938Z" fill="#FF7003"/>
</svg>
