<svg width="42" height="42" viewBox="0 0 42 42" fill="none" xmlns="http://www.w3.org/2000/svg">
<path d="M29.7566 14.0223V19.3003C29.7566 19.874 30.2217 20.3391 30.7954 20.3391H32.5902M40.0031 24.4497L36.6789 23.8164L36.1707 22.5732" stroke="#FF7003" stroke-width="1.23047" stroke-miterlimit="10" stroke-linecap="round" stroke-linejoin="round"/>
<path d="M27.2753 29.7621V14.0223H32.9777C33.7992 14.0223 34.4651 14.6883 34.4651 15.5097V20.3392L40.0032 21.5631V27.6048" stroke="#FF7003" stroke-width="1.23047" stroke-miterlimit="10" stroke-linecap="round" stroke-linejoin="round"/>
<path d="M36.7852 27.6868H40.9571V29.7621H37.3416M25.1924 27.6868H1.26712V29.7621H27.2753V8.87292H2.58692V27.6048M10.7857 29.9427C10.7857 31.607 9.43645 32.9562 7.77212 32.9562C6.10778 32.9562 4.75862 31.607 4.75862 29.9427" stroke="#FF7003" stroke-width="1.23047" stroke-miterlimit="10" stroke-linecap="round" stroke-linejoin="round"/>
<path d="M32.3263 32.9562C33.9907 32.9562 35.3399 31.607 35.3399 29.9427C35.3399 28.2783 33.9907 26.9291 32.3263 26.9291C30.6619 26.9291 29.3127 28.2783 29.3127 29.9427C29.3127 31.607 30.6619 32.9562 32.3263 32.9562Z" stroke="#FF7003" stroke-width="1.23047" stroke-miterlimit="10" stroke-linecap="round" stroke-linejoin="round"/>
<path d="M11.399 23.5468L17.1377 17.8081C18.1657 18.2749 19.4189 18.0858 20.2643 17.2404C21.1097 16.395 21.2988 15.1419 20.8319 14.1139L18.9848 15.961L17.6254 14.6015L19.4823 12.7446C18.4477 12.2564 17.1748 12.4399 16.3194 13.2954C15.4639 14.1509 15.2804 15.4237 15.7685 16.4584L10.0396 22.1874" stroke="#FF7003" stroke-width="1.23047" stroke-miterlimit="10" stroke-linecap="round" stroke-linejoin="round"/>
<path d="M20.1564 19.5224C19.8685 22.3576 17.474 24.57 14.563 24.57C11.4578 24.57 8.94058 22.0528 8.94058 18.9476C8.94058 16.0485 11.1348 13.6619 13.9532 13.3578" stroke="#FF7003" stroke-width="1.23047" stroke-miterlimit="10" stroke-linecap="round" stroke-linejoin="round"/>
</svg>
