<svg width="51" height="50" viewBox="0 0 51 50" fill="none" xmlns="http://www.w3.org/2000/svg">
<g clip-path="url(#clip0_82_109)">
<path d="M16.3333 29.1666H24.6667V14.1666H16.3333V29.1666ZM18 15.8332H23V27.4999H18V15.8332ZM26.3333 29.1666H34.6667V14.1666H26.3333V29.1666ZM28 15.8332H33V27.4999H28V15.8332ZM6.33334 29.1666H14.6667V14.1666H6.33334V29.1666ZM8.00001 15.8332H13V27.4999H8.00001V15.8332ZM36.3333 29.1666H44.6667V14.1666H36.3333V29.1666ZM38 15.8332H43V27.4999H38V15.8332Z" fill="white"/>
<path d="M49.6667 19.1667C49.8877 19.1667 50.0996 19.0789 50.2559 18.9226C50.4122 18.7663 50.5 18.5543 50.5 18.3333V11.6667C50.5 10.2859 49.3807 9.16666 48 9.16666H3C1.61927 9.16666 0.5 10.2859 0.5 11.6667V18.3333C0.5 18.7935 0.873125 19.1667 1.33333 19.1667C1.55435 19.1667 1.76631 19.2545 1.92259 19.4107C2.07887 19.567 2.16667 19.779 2.16667 20C2.16667 20.221 2.07887 20.433 1.92259 20.5892C1.76631 20.7455 1.55435 20.8333 1.33333 20.8333C1.11232 20.8333 0.900358 20.9211 0.744078 21.0774C0.587797 21.2337 0.5 21.4456 0.5 21.6667L0.5 33.3333C0.5 33.5543 0.587797 33.7663 0.744078 33.9226C0.900358 34.0789 1.11232 34.1667 1.33333 34.1667H4.66667V40C4.66667 40.221 4.75446 40.433 4.91074 40.5893C5.06702 40.7455 5.27899 40.8333 5.5 40.8333H18.8333C19.0543 40.8333 19.2663 40.7455 19.4226 40.5893C19.5789 40.433 19.6667 40.221 19.6667 40V38.3333C19.6667 38.1123 19.7545 37.9004 19.9107 37.7441C20.067 37.5878 20.279 37.5 20.5 37.5C20.6112 37.4996 20.7213 37.5221 20.8235 37.5659C20.9257 37.6098 21.0178 37.6741 21.0942 37.755C21.1707 37.8305 21.2313 37.9206 21.2723 38.0199C21.3134 38.1193 21.3342 38.2258 21.3333 38.3333V40C21.3333 40.221 21.4211 40.433 21.5774 40.5893C21.7337 40.7455 21.9457 40.8333 22.1667 40.8333H45.5C45.721 40.8333 45.933 40.7455 46.0893 40.5893C46.2455 40.433 46.3333 40.221 46.3333 40V34.1667H49.6667C49.8877 34.1667 50.0996 34.0789 50.2559 33.9226C50.4122 33.7663 50.5 33.5543 50.5 33.3333V21.6667C50.5 21.2064 50.1269 20.8333 49.6667 20.8333C49.4457 20.8333 49.2337 20.7455 49.0774 20.5892C48.9211 20.433 48.8333 20.221 48.8333 20C48.8333 19.779 48.9211 19.567 49.0774 19.4107C49.2337 19.2545 49.4457 19.1667 49.6667 19.1667ZM44.6667 39.1667H43V35.8333H41.3333V39.1667H39.6667V35.8333H38V39.1667H36.3333V35.8333H34.6667V39.1667H33V35.8333H31.3333V39.1667H29.6667V35.8333H28V39.1667H26.3333V35.8333H24.6667V39.1667H23V38.3333C22.9941 36.9551 21.8782 35.8393 20.5 35.8333C19.1193 35.8333 18 36.9526 18 38.3333V39.1667H16.3333V35.8333H14.6667V39.1667H13V35.8333H11.3333V39.1667H9.66667V35.8333H8V39.1667H6.33333V34.1667H44.6667V39.1667ZM48.8333 17.6425C47.5314 18.102 46.8483 19.53 47.3078 20.832C47.4321 21.184 47.6336 21.5038 47.8976 21.7677C48.1615 22.0317 48.4813 22.2332 48.8333 22.3575V32.5H2.16667V22.3575C3.46865 21.898 4.15167 20.47 3.69219 19.168C3.56793 18.816 3.36642 18.4962 3.10244 18.2322C2.83846 17.9683 2.51871 17.7667 2.16667 17.6425V11.6667C2.16667 11.4456 2.25446 11.2337 2.41074 11.0774C2.56702 10.9211 2.77899 10.8333 3 10.8333H48C48.221 10.8333 48.433 10.9211 48.5893 11.0774C48.7455 11.2337 48.8333 11.4456 48.8333 11.6667V17.6425Z" fill="white"/>
</g>
<defs>
<clipPath id="clip0_82_109">
<rect width="50" height="50" fill="white" transform="translate(0.5)"/>
</clipPath>
</defs>
</svg>
