<svg width="50" height="50" viewBox="0 0 50 50" fill="none" xmlns="http://www.w3.org/2000/svg">
<path d="M38.5417 26.0416H11.4584C11.1821 26.0416 10.9172 25.9319 10.7218 25.7366C10.5264 25.5412 10.4167 25.2762 10.4167 25C10.4167 24.7237 10.5264 24.4588 10.7218 24.2634C10.9172 24.0681 11.1821 23.9583 11.4584 23.9583H38.5417C38.818 23.9583 39.0829 24.0681 39.2783 24.2634C39.4736 24.4588 39.5834 24.7237 39.5834 25C39.5834 25.2762 39.4736 25.5412 39.2783 25.7366C39.0829 25.9319 38.818 26.0416 38.5417 26.0416Z" fill="white"/>
<path d="M37.5 31.25H12.5C9.05417 31.25 6.25 28.4458 6.25 25C6.25 21.5542 9.05417 18.75 12.5 18.75H37.5C40.9458 18.75 43.75 21.5542 43.75 25C43.75 28.4458 40.9458 31.25 37.5 31.25ZM12.5 20.8333C10.2021 20.8333 8.33333 22.7021 8.33333 25C8.33333 27.2979 10.2021 29.1667 12.5 29.1667H37.5C39.7979 29.1667 41.6667 27.2979 41.6667 25C41.6667 22.7021 39.7979 20.8333 37.5 20.8333H12.5Z" fill="white"/>
<path d="M44.7917 37.5H5.20833C3.82751 37.4983 2.50371 36.9491 1.52731 35.9727C0.550919 34.9963 0.00165402 33.6725 0 32.2917V17.7083C0 14.8375 2.3375 12.5 5.20833 12.5H44.7917C47.6625 12.5 50 14.8375 50 17.7083V32.2917C50 35.1625 47.6625 37.5 44.7917 37.5ZM5.20833 14.5833C3.48542 14.5833 2.08333 15.9854 2.08333 17.7083V32.2917C2.08333 34.0146 3.48542 35.4167 5.20833 35.4167H44.7917C46.5146 35.4167 47.9167 34.0146 47.9167 32.2917V17.7083C47.9167 15.9854 46.5146 14.5833 44.7917 14.5833H5.20833Z" fill="white"/>
</svg>
