<svg width="55" height="54" viewBox="0 0 55 54" fill="none" xmlns="http://www.w3.org/2000/svg">
<path d="M48.6056 3.5354H10.0825C9.41469 3.53652 8.7746 3.80234 8.30249 4.27461C7.83038 4.74688 7.56477 5.38706 7.56387 6.05484V8.56246H4.71875C4.49497 8.56246 4.28036 8.65136 4.12213 8.80959C3.9639 8.96782 3.875 9.18244 3.875 9.40621C3.875 9.62999 3.9639 9.8446 4.12213 10.0028C4.28036 10.1611 4.49497 10.25 4.71875 10.25H7.56387V12.7517H5.55659C5.11096 12.7523 4.68376 12.9296 4.36856 13.2446C4.05337 13.5597 3.87589 13.9868 3.875 14.4324V18.2386C3.87567 18.6844 4.05305 19.1117 4.36827 19.4269C4.68348 19.7421 5.11081 19.9195 5.55659 19.9202H7.56472V22.4219H5.55659C5.11081 22.4226 4.68348 22.6 4.36827 22.9152C4.05305 23.2304 3.87567 23.6577 3.875 24.1035V29.5136C3.87567 29.9594 4.05305 30.3867 4.36827 30.7019C4.68348 31.0172 5.11081 31.1945 5.55659 31.1952H7.56472V33.6969H5.55659C5.11081 33.6976 4.68348 33.875 4.36827 34.1902C4.05305 34.5054 3.87567 34.9327 3.875 35.3785V39.1838C3.87567 39.6296 4.05305 40.0569 4.36827 40.3722C4.68348 40.6874 5.11081 40.8648 5.55659 40.8654H7.56472V47.9445C7.56539 48.6123 7.83078 49.2525 8.30274 49.725C8.77469 50.1974 9.41469 50.4634 10.0825 50.4648H48.6056C49.2735 50.4639 49.9138 50.1982 50.3861 49.7259C50.8584 49.2536 51.1241 48.6133 51.125 47.9453V6.05484C51.1241 5.38692 50.8584 4.74661 50.3861 4.27431C49.9138 3.80202 49.2735 3.53629 48.6056 3.5354ZM5.5625 14.4392C6.62056 14.4426 9.02863 14.4307 10.0605 14.4324L10.0664 18.2327L5.5625 18.2386V14.4392ZM5.5625 24.1086C6.61297 24.1145 9.03622 24.1001 10.0605 24.1035L10.0664 29.5077C9.0455 29.5136 6.60875 29.5077 5.5625 29.5136V24.1086ZM5.5625 35.3844C6.61972 35.3878 9.03031 35.376 10.0605 35.3785L10.0664 39.1779C10.0664 39.1779 5.63422 39.1771 5.5625 39.1838V35.3844ZM49.4375 47.9453C49.4373 48.1659 49.3496 48.3774 49.1936 48.5334C49.0376 48.6893 48.8261 48.7771 48.6056 48.7773H10.0825C9.86204 48.7768 9.65078 48.689 9.49499 48.5331C9.3392 48.3771 9.2516 48.1658 9.25137 47.9453V40.8663H10.0664C10.5124 40.8656 10.9398 40.6881 11.2551 40.3727C11.5703 40.0573 11.7476 39.6298 11.748 39.1838V35.3785C11.7474 34.9327 11.57 34.5054 11.2548 34.1902C10.9395 33.875 10.5122 33.6976 10.0664 33.6969H9.25137V31.1952H10.0664C10.5122 31.1945 10.9395 31.0172 11.2548 30.7019C11.57 30.3867 11.7474 29.9594 11.748 29.5136V24.1035C11.7474 23.6577 11.57 23.2304 11.2548 22.9152C10.9395 22.6 10.5122 22.4226 10.0664 22.4219H9.25137V19.9202H10.0664C10.5122 19.9195 10.9395 19.7421 11.2548 19.4269C11.57 19.1117 11.7474 18.6844 11.748 18.2386V14.4333C11.7474 13.9875 11.57 13.5602 11.2548 13.2449C10.9395 12.9297 10.5122 12.7524 10.0664 12.7517H9.25137C9.25391 11.087 9.24969 7.72124 9.25137 6.05484C9.2516 5.83441 9.3392 5.62306 9.49499 5.46711C9.65078 5.31117 9.86204 5.22335 10.0825 5.2229H48.6056C48.8261 5.22312 49.0376 5.31085 49.1936 5.46682C49.3496 5.62279 49.4373 5.83426 49.4375 6.05484V47.9453Z" fill="white"/>
<path d="M15.8377 27.4607H18.2795C18.7253 27.4601 19.1526 27.2827 19.4679 26.9675C19.7831 26.6523 19.9604 26.2249 19.9611 25.7791V10.6988C19.9604 10.253 19.7831 9.82569 19.4679 9.51048C19.1526 9.19526 18.7253 9.01788 18.2795 9.01721H15.8377C15.3919 9.01788 14.9646 9.19526 14.6494 9.51048C14.3342 9.82569 14.1568 10.253 14.1561 10.6988V25.7791C14.1568 26.2249 14.3342 26.6523 14.6494 26.9675C14.9646 27.2827 15.3919 27.4601 15.8377 27.4607ZM15.8436 10.7039L18.2736 10.6988L18.2795 25.7732L15.8436 25.7791V10.7039ZM23.8238 27.4607H26.2656C26.7114 27.4601 27.1387 27.2827 27.4539 26.9675C27.7692 26.6523 27.9465 26.2249 27.9472 25.7791V10.6988C27.9465 10.253 27.7692 9.82569 27.4539 9.51048C27.1387 9.19526 26.7114 9.01788 26.2656 9.01721H23.8238C23.3779 9.01766 22.9503 9.19494 22.6349 9.51018C22.3195 9.82542 22.142 10.2529 22.1414 10.6988V25.7791C22.142 26.2251 22.3195 26.6525 22.6349 26.9678C22.9503 27.283 23.3779 27.4603 23.8238 27.4607ZM23.8289 10.7039L26.2597 10.6988L26.2656 25.7732L23.8289 25.7791V10.7039ZM46.1857 15.3124C46.4095 15.3124 46.6241 15.2235 46.7823 15.0653C46.9406 14.9071 47.0295 14.6925 47.0295 14.4687C47.0295 14.2449 46.9406 14.0303 46.7823 13.8721C46.6241 13.7138 46.4095 13.6249 46.1857 13.6249H43.9802C43.815 13.3199 43.5646 13.0695 43.2596 12.9044V10.6988C43.2596 10.475 43.1707 10.2604 43.0125 10.1022C42.8542 9.94395 42.6396 9.85506 42.4158 9.85506C42.1921 9.85506 41.9775 9.94395 41.8192 10.1022C41.661 10.2604 41.5721 10.475 41.5721 10.6988V12.6816H39.4897V10.6988C39.4897 10.475 39.4008 10.2604 39.2426 10.1022C39.0844 9.94395 38.8697 9.85506 38.646 9.85506C38.4222 9.85506 38.2076 9.94395 38.0493 10.1022C37.8911 10.2604 37.8022 10.475 37.8022 10.6988V12.6816H35.719V10.6988C35.719 10.475 35.6301 10.2604 35.4719 10.1022C35.3136 9.94395 35.099 9.85506 34.8752 9.85506C34.6515 9.85506 34.4369 9.94395 34.2786 10.1022C34.1204 10.2604 34.0315 10.475 34.0315 10.6988V12.9044C33.7265 13.0695 33.4761 13.3199 33.3109 13.6249H31.1045C30.8807 13.6249 30.6661 13.7138 30.5079 13.8721C30.3497 14.0303 30.2608 14.2449 30.2608 14.4687C30.2608 14.6925 30.3497 14.9071 30.5079 15.0653C30.6661 15.2235 30.8807 15.3124 31.1045 15.3124H33.089V17.3948H31.1045C30.8807 17.3948 30.6661 17.4837 30.5079 17.6419C30.3497 17.8002 30.2608 18.0148 30.2608 18.2386C30.2608 18.4623 30.3497 18.6769 30.5079 18.8352C30.6661 18.9934 30.8807 19.0823 31.1045 19.0823H33.089V21.1647H31.1045C30.8807 21.1647 30.6661 21.2536 30.5079 21.4118C30.3497 21.57 30.2608 21.7847 30.2608 22.0084C30.2608 22.2322 30.3497 22.4468 30.5079 22.6051C30.6661 22.7633 30.8807 22.8522 31.1045 22.8522H33.3109C33.476 23.1575 33.7263 23.4082 34.0315 23.5736V25.7791C34.0315 26.0029 34.1204 26.2175 34.2786 26.3758C34.4369 26.534 34.6515 26.6229 34.8752 26.6229C35.099 26.6229 35.3136 26.534 35.4719 26.3758C35.6301 26.2175 35.719 26.0029 35.719 25.7791V23.7955H37.8022V25.7783C37.8022 26.0021 37.8911 26.2167 38.0493 26.3749C38.2076 26.5332 38.4222 26.6221 38.646 26.6221C38.8697 26.6221 39.0844 26.5332 39.2426 26.3749C39.4008 26.2167 39.4897 26.0021 39.4897 25.7783V23.7955H41.5721V25.7783C41.5721 26.0021 41.661 26.2167 41.8192 26.3749C41.9775 26.5332 42.1921 26.6221 42.4158 26.6221C42.6396 26.6221 42.8542 26.5332 43.0125 26.3749C43.1707 26.2167 43.2596 26.0021 43.2596 25.7783V23.5744C43.5647 23.409 43.8151 23.1584 43.9802 22.853H46.1866C46.4103 22.853 46.6249 22.7641 46.7832 22.6059C46.9414 22.4477 47.0303 22.233 47.0303 22.0093C47.0303 21.7855 46.9414 21.5709 46.7832 21.4127C46.6249 21.2544 46.4103 21.1655 46.1866 21.1655H44.2021V19.0831H46.1857C46.4095 19.0831 46.6241 18.9943 46.7823 18.836C46.9406 18.6778 47.0295 18.4632 47.0295 18.2394C47.0295 18.0156 46.9406 17.801 46.7823 17.6428C46.6241 17.4845 46.4095 17.3956 46.1857 17.3956H44.2021V15.3133L46.1857 15.3124ZM34.8752 22.108C34.849 22.1078 34.8239 22.0972 34.8054 22.0785C34.7869 22.0599 34.7765 22.0347 34.7765 22.0084V14.4687C34.7767 14.4426 34.7872 14.4176 34.8057 14.3991C34.8241 14.3807 34.8491 14.3702 34.8752 14.37H42.4158C42.442 14.3702 42.4669 14.3807 42.4854 14.3991C42.5039 14.4176 42.5143 14.4426 42.5146 14.4687V22.0093C42.5143 22.0354 42.5039 22.0604 42.4854 22.0788C42.4669 22.0973 42.442 22.1078 42.4158 22.108H34.8752ZM45.3479 29.9616H42.8335C42.3879 29.9625 41.9609 30.14 41.646 30.4552C41.3311 30.7705 41.154 31.1977 41.1536 31.6432V34.1576C41.154 34.6033 41.3312 35.0306 41.6463 35.3459C41.9614 35.6611 42.3886 35.8385 42.8343 35.8392H45.3487C45.7945 35.8383 46.2217 35.6607 46.5368 35.3453C46.8519 35.0299 47.029 34.6025 47.0295 34.1567V31.6432C47.0286 31.1976 46.8511 30.7705 46.5359 30.4554C46.2207 30.1404 45.7935 29.9631 45.3479 29.9625V29.9616ZM42.8411 34.1567V31.65L45.342 31.6432L45.3479 34.1517L42.8411 34.1567ZM37.8081 35.8392C38.254 35.8385 38.6815 35.661 38.9967 35.3456C39.312 35.0302 39.4893 34.6027 39.4897 34.1567V31.6432C39.4888 31.1976 39.3113 30.7705 38.9961 30.4554C38.681 30.1404 38.2538 29.9631 37.8081 29.9625H35.2937C34.8482 29.9631 34.4211 30.1404 34.106 30.4555C33.791 30.7705 33.6137 31.1977 33.613 31.6432V34.1576C33.6134 34.6033 33.7906 35.0306 34.1057 35.3459C34.4208 35.6611 34.848 35.8385 35.2937 35.8392H37.8081ZM35.3005 31.65L37.8022 31.6432L37.8081 34.1517L35.3005 34.1567V31.65ZM26.0724 31.6432V34.1576C26.0731 34.6034 26.2505 35.0307 26.5657 35.3459C26.8809 35.6611 27.3082 35.8385 27.754 35.8392H30.2684C30.7141 35.8383 31.1412 35.6607 31.4561 35.3453C31.7711 35.0299 31.9481 34.6024 31.9483 34.1567V31.6432C31.9476 31.1977 31.7703 30.7705 31.4553 30.4555C31.1402 30.1404 30.7131 29.9631 30.2675 29.9625H27.7531C27.3077 29.9634 26.8807 30.1407 26.5657 30.4557C26.2507 30.7707 26.0733 31.1977 26.0724 31.6432ZM27.7599 31.65L30.2608 31.6432L30.2675 34.1517L27.7599 34.1567V31.65ZM45.3479 39.1779H27.754C27.3082 39.1786 26.8809 39.356 26.5657 39.6712C26.2505 39.9864 26.0731 40.4137 26.0724 40.8595V43.3013C26.0731 43.7471 26.2505 44.1744 26.5657 44.4896C26.8809 44.8048 27.3082 44.9822 27.754 44.9829H45.3479C45.7937 44.9822 46.221 44.8048 46.5362 44.4896C46.8514 44.1744 47.0288 43.7471 47.0295 43.3013V40.8595C47.0288 40.4137 46.8514 39.9864 46.5362 39.6712C46.221 39.356 45.7937 39.1786 45.3479 39.1779ZM27.754 40.8654H40.525V43.2971L27.7591 43.3013L27.754 40.8654ZM42.2125 43.2971V40.8654H45.3428L45.3479 43.2954L42.2125 43.2971ZM22.986 29.9616C22.7622 29.9616 22.5476 30.0505 22.3893 30.2087C22.2311 30.367 22.1422 30.5816 22.1422 30.8054V34.9954C22.1422 35.2192 22.2311 35.4338 22.3893 35.5921C22.5476 35.7503 22.7622 35.8392 22.986 35.8392C23.2097 35.8392 23.4243 35.7503 23.5826 35.5921C23.7408 35.4338 23.8297 35.2192 23.8297 34.9954V30.8054C23.8297 30.5816 23.7408 30.367 23.5826 30.2087C23.4243 30.0505 23.2097 29.9616 22.986 29.9616ZM19.9611 34.9954V30.8054C19.9611 30.5816 19.8722 30.367 19.714 30.2087C19.5558 30.0505 19.3411 29.9616 19.1174 29.9616C18.8936 29.9616 18.679 30.0505 18.5207 30.2087C18.3625 30.367 18.2736 30.5816 18.2736 30.8054V34.9946C18.2736 35.2184 18.3625 35.433 18.5207 35.5912C18.679 35.7494 18.8936 35.8383 19.1174 35.8383C19.3411 35.8383 19.5558 35.7494 19.714 35.5912C19.8722 35.433 19.9611 35.2184 19.9611 34.9946V34.9954ZM14.405 30.8054V34.9954C14.405 35.2192 14.4939 35.4338 14.6522 35.5921C14.8104 35.7503 15.025 35.8392 15.2488 35.8392C15.4725 35.8392 15.6872 35.7503 15.8454 35.5921C16.0036 35.4338 16.0925 35.2192 16.0925 34.9954V30.8054C16.0925 30.5816 16.0036 30.367 15.8454 30.2087C15.6872 30.0505 15.4725 29.9616 15.2488 29.9616C15.025 29.9616 14.8104 30.0505 14.6522 30.2087C14.4939 30.367 14.405 30.5816 14.405 30.8054ZM17.5134 39.1779H14.999C14.7752 39.1779 14.5606 39.2668 14.4024 39.425C14.2442 39.5833 14.1553 39.7979 14.1553 40.0216C14.1553 40.2454 14.2442 40.46 14.4024 40.6183C14.5606 40.7765 14.7752 40.8654 14.999 40.8654H17.5134C17.7372 40.8654 17.9518 40.7765 18.11 40.6183C18.2683 40.46 18.3571 40.2454 18.3571 40.0216C18.3571 39.7979 18.2683 39.5833 18.11 39.425C17.9518 39.2668 17.7372 39.1779 17.5134 39.1779ZM22.986 39.1779H20.4716C20.2478 39.178 20.0332 39.267 19.8751 39.4253C19.7169 39.5836 19.6281 39.7983 19.6283 40.0221C19.6284 40.2458 19.7174 40.4604 19.8757 40.6186C20.034 40.7767 20.2487 40.8655 20.4724 40.8654H22.9851C23.2089 40.8654 23.4235 40.7765 23.5817 40.6183C23.74 40.46 23.8289 40.2454 23.8289 40.0216C23.8289 39.7979 23.74 39.5833 23.5817 39.425C23.4235 39.2668 23.2097 39.1779 22.986 39.1779ZM17.5134 42.5293H14.999C14.7752 42.5293 14.5606 42.6182 14.4024 42.7764C14.2442 42.9346 14.1553 43.1492 14.1553 43.373C14.1553 43.5968 14.2442 43.8114 14.4024 43.9696C14.5606 44.1279 14.7752 44.2168 14.999 44.2168H17.5134C17.7372 44.2168 17.9518 44.1279 18.11 43.9696C18.2683 43.8114 18.3571 43.5968 18.3571 43.373C18.3571 43.1492 18.2683 42.9346 18.11 42.7764C17.9518 42.6182 17.7372 42.5293 17.5134 42.5293ZM22.986 42.5293H20.4716C20.2478 42.5294 20.0332 42.6184 19.8751 42.7767C19.7169 42.935 19.6281 43.1497 19.6283 43.3734C19.6284 43.5972 19.7174 43.8118 19.8757 43.9699C20.034 44.1281 20.2487 44.2169 20.4724 44.2168H22.9851C23.2089 44.2168 23.4235 44.1279 23.5817 43.9696C23.74 43.8114 23.8289 43.5968 23.8289 43.373C23.8289 43.1492 23.74 42.9346 23.5817 42.7764C23.4235 42.6182 23.2097 42.5293 22.986 42.5293Z" fill="white"/>
</svg>
