<svg width="51" height="50" viewBox="0 0 51 50" fill="none" xmlns="http://www.w3.org/2000/svg">
<path d="M28.9325 7.76721H21.9645C20.9904 7.76721 20.1663 8.59139 20.1663 9.56541V12.7872H17.1693C15.6708 12.7872 14.397 14.0609 14.397 15.5594V39.4605C14.397 40.959 15.6708 42.2327 17.1693 42.2327H33.7277C35.2262 42.2327 36.4999 40.959 36.4999 39.4605V15.5594C36.4999 14.0609 35.2262 12.7872 33.7277 12.7872H30.7307V9.56541C30.8056 8.59139 29.9814 7.76721 28.9325 7.76721ZM21.6648 9.56541C21.6648 9.41556 21.8146 9.26571 21.9645 9.26571H28.9325C29.0823 9.26571 29.2322 9.41556 29.2322 9.56541V12.7872H21.6648V9.56541ZM33.7277 14.2857C34.402 14.2857 35.0014 14.8851 35.0014 15.5594V39.4605C35.0014 40.1348 34.402 40.7342 33.7277 40.7342H17.2442C16.5699 40.7342 15.9705 40.1348 15.9705 39.4605V15.5594C15.9705 14.8851 16.5699 14.2857 17.2442 14.2857H30.8056H33.7277Z" fill="white"/>
<path d="M18.2927 38.6364H32.6783V32.4925H18.2927V38.6364ZM19.7912 33.991H31.1798V37.1379H19.7912V33.991ZM18.2927 30.5445H32.6783V24.4006H18.2927V30.5445ZM19.7912 25.9741H31.1798V29.1209H19.7912V25.9741ZM18.2927 22.5275H32.6783V16.3837H18.2927V22.5275ZM19.7912 17.8822H31.1798V21.029H19.7912V17.8822Z" fill="white"/>
</svg>
