<svg width="51" height="50" viewBox="0 0 51 50" fill="none" xmlns="http://www.w3.org/2000/svg">
<g clip-path="url(#clip0_82_314)">
<mask id="mask0_82_314" style="mask-type:luminance" maskUnits="userSpaceOnUse" x="0" y="0" width="51" height="50">
<path d="M0.5 50H50.5V0H0.5V50Z" fill="white"/>
</mask>
<g mask="url(#mask0_82_314)">
<path d="M45.504 37.0546C45.9703 37.0546 46.3434 36.6816 46.3434 36.2152V13.7845C46.3434 13.3182 45.9703 12.9451 45.504 12.9451H5.49244C5.0261 12.9451 4.65303 13.3182 4.65303 13.7845V36.2152C4.65303 36.6816 5.0261 37.0546 5.46912 37.0546H45.504ZM45.504 38.4536H5.49244C4.25665 38.4536 3.25403 37.451 3.25403 36.2152V13.7845C3.25403 12.5487 4.25665 11.5461 5.49244 11.5461H45.5273C46.7631 11.5461 47.7657 12.5487 47.7657 13.7845V36.2152C47.7424 37.451 46.7398 38.4536 45.504 38.4536ZM36.4804 14.6006H14.5627C13.7932 14.6006 13.1636 15.2302 13.1636 15.9996V17.6318C13.1636 18.4012 13.7932 19.0308 14.5627 19.0308H36.4804C37.2499 19.0308 37.8794 18.4012 37.8794 17.6318V15.9996C37.8794 15.2302 37.2499 14.6006 36.4804 14.6006ZM14.5627 17.6318V15.9996H36.4804V17.6318H14.5627ZM10.8087 14.6006H7.35778C6.63496 14.6006 6.07536 15.2302 6.07536 15.9763V17.6318C6.07536 18.4012 6.65828 19.0075 7.35778 19.0075H10.8087C11.5315 19.0075 12.0911 18.3779 12.0911 17.6318V15.9763C12.0911 15.2302 11.5082 14.6006 10.8087 14.6006ZM7.47436 15.9996H10.6921V17.6318H7.47436V15.9996ZM43.6387 14.6006H40.1878C39.465 14.6006 38.9053 15.2302 38.9053 15.9763V17.6318C38.9053 18.4012 39.4883 19.0075 40.1878 19.0075H43.6387C44.3615 19.0075 44.9211 18.3779 44.9211 17.6318V15.9763C44.9211 15.2302 44.3615 14.6006 43.6387 14.6006ZM40.3044 15.9996H43.5221V17.6318H40.3044V15.9996ZM9.59619 30.969H7.40441C6.65828 30.969 6.07536 31.5985 6.07536 32.368V34.0001C6.07536 34.7696 6.68159 35.3991 7.40441 35.3991H9.59619C10.3423 35.3991 10.9252 34.7696 10.9252 34.0001V32.368C10.9252 31.5752 10.319 30.969 9.59619 30.969ZM7.47436 32.368H9.52624V34.0001H7.47436V32.368ZM15.2622 30.969H13.0704C12.3242 30.969 11.7413 31.5985 11.7413 32.368V34.0001C11.7413 34.7696 12.3476 35.3991 13.0704 35.3991H15.2622C16.0083 35.3991 16.5912 34.7696 16.5912 34.0001V32.368C16.5912 31.5752 15.985 30.969 15.2622 30.969ZM13.1403 32.368H15.1922V34.0001H13.1403V32.368ZM20.9281 30.969H18.7364C17.9902 30.969 17.4073 31.5985 17.4073 32.368V34.0001C17.4073 34.7696 18.0135 35.3991 18.7364 35.3991H20.9281C21.6743 35.3991 22.2572 34.7696 22.2572 34.0001V32.368C22.2572 31.5752 21.6509 30.969 20.9281 30.969ZM18.8063 32.368H20.8582V34.0001H18.8063V32.368ZM26.5941 30.969H24.4023C23.6562 30.969 23.0733 31.5985 23.0733 32.368V34.0001C23.0733 34.7696 23.6795 35.3991 24.4023 35.3991H26.5941C27.3402 35.3991 27.9232 34.7696 27.9232 34.0001V32.368C27.9232 31.5752 27.3402 30.969 26.5941 30.969ZM24.4723 32.368H26.5241V34.0001H24.4723V32.368ZM32.2601 30.969H30.0683C29.3222 30.969 28.7392 31.5985 28.7392 32.368V34.0001C28.7392 34.7696 29.3455 35.3991 30.0683 35.3991H32.2601C33.0062 35.3991 33.5891 34.7696 33.5891 34.0001V32.368C33.5891 31.5752 33.0062 30.969 32.2601 30.969ZM30.1382 32.368H32.1901V34.0001H30.1382V32.368ZM37.926 30.969H35.7343C34.9881 30.969 34.4052 31.5985 34.4052 32.368V34.0001C34.4052 34.7696 35.0114 35.3991 35.7343 35.3991H37.926C38.6722 35.3991 39.2551 34.7696 39.2551 34.0001V32.368C39.2551 31.5752 38.6722 30.969 37.926 30.969ZM35.8042 32.368H37.8561V34.0001H35.8042V32.368ZM43.592 30.969H41.4002C40.6541 30.969 40.0712 31.5985 40.0712 32.368V34.0001C40.0712 34.7696 40.6774 35.3991 41.4002 35.3991H43.592C44.3382 35.3991 44.9211 34.7696 44.9211 34.0001V32.368C44.9211 31.5752 44.3382 30.969 43.592 30.969ZM41.4702 32.368H43.5221V34.0001H41.4702V32.368ZM9.59619 25.4895H7.40441C6.65828 25.4895 6.07536 26.1191 6.07536 26.8885V28.5207C6.07536 29.2902 6.68159 29.9197 7.40441 29.9197H9.59619C10.3423 29.9197 10.9252 29.2902 10.9252 28.5207V26.8885C10.9252 26.1191 10.319 25.4895 9.59619 25.4895ZM7.47436 26.8885H9.52624V28.5207H7.47436V26.8885ZM15.2622 25.4895H13.0704C12.3242 25.4895 11.7413 26.1191 11.7413 26.8885V28.5207C11.7413 29.2902 12.3476 29.9197 13.0704 29.9197H15.2622C16.0083 29.9197 16.5912 29.2902 16.5912 28.5207V26.8885C16.5912 26.1191 15.985 25.4895 15.2622 25.4895ZM13.1403 26.8885H15.1922V28.5207H13.1403V26.8885ZM20.9281 25.4895H18.7364C17.9902 25.4895 17.4073 26.1191 17.4073 26.8885V28.5207C17.4073 29.2902 18.0135 29.9197 18.7364 29.9197H20.9281C21.6743 29.9197 22.2572 29.2902 22.2572 28.5207V26.8885C22.2572 26.1191 21.6509 25.4895 20.9281 25.4895ZM18.8063 26.8885H20.8582V28.5207H18.8063V26.8885ZM26.5941 25.4895H24.4023C23.6562 25.4895 23.0733 26.1191 23.0733 26.8885V28.5207C23.0733 29.2902 23.6795 29.9197 24.4023 29.9197H26.5941C27.3402 29.9197 27.9232 29.2902 27.9232 28.5207V26.8885C27.9232 26.1191 27.3402 25.4895 26.5941 25.4895ZM24.4723 26.8885H26.5241V28.5207H24.4723V26.8885ZM32.2601 25.4895H30.0683C29.3222 25.4895 28.7392 26.1191 28.7392 26.8885V28.5207C28.7392 29.2902 29.3455 29.9197 30.0683 29.9197H32.2601C33.0062 29.9197 33.5891 29.2902 33.5891 28.5207V26.8885C33.5891 26.1191 33.0062 25.4895 32.2601 25.4895ZM30.1382 26.8885H32.1901V28.5207H30.1382V26.8885ZM37.926 25.4895H35.7343C34.9881 25.4895 34.4052 26.1191 34.4052 26.8885V28.5207C34.4052 29.2902 35.0114 29.9197 35.7343 29.9197H37.926C38.6722 29.9197 39.2551 29.2902 39.2551 28.5207V26.8885C39.2551 26.1191 38.6722 25.4895 37.926 25.4895ZM35.8042 26.8885H37.8561V28.5207H35.8042V26.8885ZM43.592 25.4895H41.4002C40.6541 25.4895 40.0712 26.1191 40.0712 26.8885V28.5207C40.0712 29.2902 40.6774 29.9197 41.4002 29.9197H43.592C44.3382 29.9197 44.9211 29.2902 44.9211 28.5207V26.8885C44.9211 26.1191 44.3382 25.4895 43.592 25.4895ZM41.4702 26.8885H43.5221V28.5207H41.4702V26.8885ZM9.59619 20.0334H7.40441C6.65828 20.0334 6.07536 20.663 6.07536 21.4324V23.0646C6.07536 23.834 6.68159 24.4636 7.40441 24.4636H9.59619C10.3423 24.4636 10.9252 23.834 10.9252 23.0646V21.4324C10.9252 20.663 10.319 20.0334 9.59619 20.0334ZM7.47436 21.4324H9.52624V23.0646H7.47436V21.4324ZM15.2622 20.0334H13.0704C12.3242 20.0334 11.7413 20.663 11.7413 21.4324V23.0646C11.7413 23.834 12.3476 24.4636 13.0704 24.4636H15.2622C16.0083 24.4636 16.5912 23.834 16.5912 23.0646V21.4324C16.5912 20.663 15.985 20.0334 15.2622 20.0334ZM13.1403 21.4324H15.1922V23.0646H13.1403V21.4324ZM20.9281 20.0334H18.7364C17.9902 20.0334 17.4073 20.663 17.4073 21.4324V23.0646C17.4073 23.834 18.0135 24.4636 18.7364 24.4636H20.9281C21.6743 24.4636 22.2572 23.834 22.2572 23.0646V21.4324C22.2572 20.663 21.6509 20.0334 20.9281 20.0334ZM18.8063 21.4324H20.8582V23.0646H18.8063V21.4324ZM26.5941 20.0334H24.4023C23.6562 20.0334 23.0733 20.663 23.0733 21.4324V23.0646C23.0733 23.834 23.6795 24.4636 24.4023 24.4636H26.5941C27.3402 24.4636 27.9232 23.834 27.9232 23.0646V21.4324C27.9232 20.663 27.3402 20.0334 26.5941 20.0334ZM24.4723 21.4324H26.5241V23.0646H24.4723V21.4324ZM32.2601 20.0334H30.0683C29.3222 20.0334 28.7392 20.663 28.7392 21.4324V23.0646C28.7392 23.834 29.3455 24.4636 30.0683 24.4636H32.2601C33.0062 24.4636 33.5891 23.834 33.5891 23.0646V21.4324C33.5891 20.663 33.0062 20.0334 32.2601 20.0334ZM30.1382 21.4324H32.1901V23.0646H30.1382V21.4324ZM37.926 20.0334H35.7343C34.9881 20.0334 34.4052 20.663 34.4052 21.4324V23.0646C34.4052 23.834 35.0114 24.4636 35.7343 24.4636H37.926C38.6722 24.4636 39.2551 23.834 39.2551 23.0646V21.4324C39.2551 20.663 38.6722 20.0334 37.926 20.0334ZM35.8042 21.4324H37.8561V23.0646H35.8042V21.4324ZM43.592 20.0334H41.4002C40.6541 20.0334 40.0712 20.663 40.0712 21.4324V23.0646C40.0712 23.834 40.6774 24.4636 41.4002 24.4636H43.592C44.3382 24.4636 44.9211 23.834 44.9211 23.0646V21.4324C44.9211 20.663 44.3382 20.0334 43.592 20.0334ZM41.4702 21.4324H43.5221V23.0646H41.4702V21.4324Z" fill="white"/>
</g>
</g>
<defs>
<clipPath id="clip0_82_314">
<rect width="50" height="50" fill="white" transform="matrix(1 0 0 -1 0.5 50)"/>
</clipPath>
</defs>
</svg>
