<svg width="51" height="50" viewBox="0 0 51 50" fill="none" xmlns="http://www.w3.org/2000/svg">
<g clip-path="url(#clip0_82_330)">
<path d="M12.3421 18.1598C9.57307 17.5565 6.1265 16.804 3.90909 19.8439C3.52702 20.3042 3.2784 20.8603 3.19025 21.452C3.1021 22.0436 3.1778 22.6481 3.40911 23.1997C3.75563 23.8636 4.33034 24.38 5.02742 24.6538C6.20952 25.0611 7.46911 25.1925 8.70981 25.038C8.98148 25.0238 9.25062 25.0088 9.51731 25.003H9.64728C11.0204 24.9344 12.3965 25.0484 13.7396 25.3422C14.4488 25.5272 15.3129 25.8714 15.3979 26.463C15.4087 26.5432 15.4087 26.6245 15.3979 26.7047C15.3937 26.74 15.3875 26.775 15.3795 26.8096C15.1295 27.9912 13.4305 28.573 12.0463 28.852C10.6941 29.0815 9.3238 29.1881 7.95232 29.1704C7.59403 29.177 7.23486 29.1838 6.87647 29.1945C5.26071 29.2428 2.55494 29.3228 1.20996 31.3203C0.724035 32.067 0.476986 32.9439 0.501687 33.8344C0.506377 34.225 0.589486 34.6107 0.746079 34.9685C0.902673 35.3264 1.12956 35.6491 1.41328 35.9176C1.81534 36.2643 2.30317 36.4965 2.82573 36.5901C3.26565 36.6675 3.71334 36.6913 4.15899 36.6609C4.9948 36.6098 5.8275 36.5166 6.65392 36.3817C6.96221 36.3375 7.2706 36.2916 7.57889 36.2517C8.41803 36.1417 9.25882 36.0576 10.1005 35.9734L11.1838 35.8626C12.0321 35.7725 12.9945 35.6709 13.9136 35.6567C15.0877 35.6367 15.8603 35.8633 16.1077 36.3109C16.1744 36.4864 16.2039 36.6738 16.1943 36.8613C16.1847 37.0488 16.1362 37.2323 16.0519 37.4C15.6244 38.351 15.0389 39.2228 14.3203 39.9782C14.2039 40.112 14.0861 40.2445 13.967 40.3757C13.3234 41.0097 12.8084 41.762 12.4503 42.5914C12.2913 43.0417 12.2232 43.5191 12.2501 43.9959C12.277 44.4726 12.3983 44.9393 12.6069 45.3689C12.7788 45.7354 13.0237 46.0629 13.3266 46.3314C13.6295 46.5999 13.9841 46.8038 14.3685 46.9304C14.7191 47.0399 15.0845 47.0944 15.4518 47.0921C16.4156 47.0553 17.3562 46.786 18.1934 46.3071C19.2357 45.6885 20.1655 44.8976 20.9433 43.968C21.446 43.3982 21.9188 42.8027 22.3599 42.1839C22.8327 41.5089 23.3529 40.8684 23.9165 40.2673C24.8786 39.2976 26.0311 38.5378 27.3014 38.0357C27.9201 37.7289 28.6028 37.5733 29.2934 37.5817C29.9839 37.5901 30.6627 37.7623 31.2737 38.0841C31.9173 38.5156 32.4408 39.1033 32.7953 39.7923C33.0695 40.2573 33.3253 40.7706 33.597 41.3131C34.6586 43.438 35.9794 46.0813 39.081 46.3087C39.8618 46.3466 40.642 46.2209 41.3714 45.9396C42.1008 45.6584 42.7634 45.2278 43.3167 44.6754C44.38 43.628 45.385 41.7872 44.7183 40.0464C44.0575 38.3189 42.1408 37.5581 41.1109 37.149L40.6109 36.9524C39.3333 36.5238 38.1228 35.9167 37.0152 35.1491C36.2804 34.6083 35.7339 33.8505 35.4528 32.9825C35.3643 32.7283 35.351 32.454 35.4144 32.1925C35.5811 31.6583 36.446 31.7075 36.8102 31.7533C37.2985 31.8141 37.7809 31.8967 38.2634 31.9774C38.6601 32.0449 39.0568 32.1116 39.4559 32.1682C40.5299 32.3199 42.5266 32.6041 43.5874 30.9424C43.8107 30.589 43.9554 30.1918 44.0118 29.7775C44.0682 29.3633 44.0348 28.9418 43.914 28.5416C43.7947 28.1334 43.5892 27.7556 43.3113 27.4337C43.0334 27.1119 42.6896 26.8534 42.3032 26.6758C41.6402 26.3961 40.9179 26.2858 40.2016 26.3551C40.0717 26.3634 39.9425 26.3767 39.8125 26.39C39.6091 26.4137 39.4047 26.4267 39.2 26.4292C38.9609 26.425 38.4975 26.3334 38.45 26.0125C38.428 25.6403 38.5348 25.2718 38.7526 24.9692C39.3784 24.0467 40.7016 23.9742 41.9817 23.9042L42.225 23.8908C44.0224 23.7866 46.0357 23.5083 47.1882 21.5109C47.6463 20.6946 47.859 19.7635 47.8007 18.8293C47.6657 17.0011 46.1899 15.7403 44.1284 15.6936C42.7925 15.7171 41.4668 15.9303 40.191 16.3269L39.5436 16.4936C38.438 16.8917 37.2517 17.0124 36.0887 16.8452C35.6937 16.7318 35.5887 16.5527 35.5345 16.4103C35.2654 15.6503 35.992 13.9936 36.8137 12.8271C37.0478 12.4938 37.2986 12.1604 37.5495 11.8271C38.3965 10.8181 39.0803 9.68274 39.5761 8.46219C40.1595 6.90541 39.5886 5.15205 38.2002 4.23733C37.8422 4.02653 37.4448 3.89131 37.0324 3.84C36.6201 3.78869 36.2017 3.82238 35.8029 3.939C34.3529 4.37815 33.4446 5.66394 32.6438 6.79809C32.4338 7.09476 32.2271 7.38137 32.0254 7.64142C30.0972 10.058 29.3422 9.91546 29.1581 9.81303C29.143 9.80385 29.0114 9.71801 28.9281 9.22222C28.8689 8.86804 28.8373 8.50643 28.8056 8.14638C28.7832 7.89639 28.7615 7.65226 28.7323 7.40725C28.6792 6.8018 28.5148 6.21136 28.2473 5.6656C28.0834 5.33887 27.8557 5.04828 27.5776 4.81099C27.2995 4.5737 26.9767 4.39451 26.6283 4.28401C26.12 4.13821 24.8383 3.98568 23.8992 5.70896C23.4424 6.61913 23.0915 7.57869 22.8534 8.56883C22.7234 9.03385 22.5942 9.498 22.4367 9.94964C22.1933 10.6522 21.7393 11.9595 20.9992 12.3663C20.9556 12.399 20.9049 12.421 20.8512 12.4306C20.7975 12.4401 20.7423 12.4369 20.6901 12.4212C20.5717 12.3821 20.1434 12.1596 19.596 10.9479C19.4151 10.5471 19.2568 10.1371 19.096 9.72719C18.8224 8.9596 18.488 8.21504 18.096 7.5006C17.0786 5.75066 15.6836 4.73566 14.1678 4.64738C12.0104 4.52492 10.3696 6.30152 9.86466 8.12226C9.50606 9.69594 9.74359 11.3467 10.5313 12.7554C11.4601 14.4484 12.7047 15.9476 14.1979 17.172C14.7154 17.6503 15.2462 18.1419 15.7437 18.662C15.1753 18.6508 14.6085 18.5976 14.0479 18.5028C13.4954 18.4115 12.923 18.2865 12.3421 18.1598ZM17.3753 17.974C16.7187 17.2356 16.012 16.5816 15.3287 15.9482C13.9918 14.863 12.8729 13.5339 12.0314 12.0316C11.4286 10.9856 11.2297 9.75515 11.4722 8.57254C11.7981 7.39592 12.8097 6.24508 14.073 6.31763C15.3364 6.39009 16.2346 7.61847 16.6562 8.34423C17.0044 8.98359 17.3019 9.6492 17.5462 10.335C17.7129 10.7741 17.8863 11.2116 18.0804 11.6399C18.6787 12.9658 19.362 13.7407 20.1636 14.009C20.4338 14.0971 20.7197 14.1268 21.0022 14.0962C21.2848 14.0656 21.5577 13.9754 21.8027 13.8314C23.1027 13.1148 23.6935 11.4148 24.0102 10.4983C24.1769 10.0141 24.3185 9.51743 24.4576 9.01911C24.665 8.15147 24.9692 7.30984 25.3642 6.51001C25.7668 5.77341 26.0517 5.85417 26.1725 5.89001C26.439 5.99021 26.6558 6.19054 26.7767 6.44829C26.9461 6.81257 27.0502 7.2038 27.0842 7.60411C27.1117 7.83331 27.1317 8.06328 27.1526 8.29325C27.1884 8.69656 27.2242 9.09987 27.2909 9.49741C27.3196 9.8555 27.431 10.2021 27.6162 10.5099C27.8014 10.8177 28.0554 11.0784 28.3584 11.2715C30.38 12.3898 32.5249 9.69487 33.3358 8.67986C33.5607 8.39901 33.7832 8.08408 34.0116 7.76319C34.6899 6.80326 35.3908 5.81072 36.2924 5.53739C36.4699 5.48675 36.6558 5.47275 36.8389 5.49624C37.022 5.51972 37.1984 5.5802 37.3574 5.674C37.6943 5.92554 37.9403 6.27987 38.0581 6.68348C38.176 7.0871 38.1593 7.51811 38.0107 7.91143C37.5691 8.96919 36.9677 9.95286 36.2275 10.828C35.9641 11.1755 35.7016 11.5221 35.455 11.8747C35.09 12.3955 33.3034 15.0904 33.9709 16.9736C34.1032 17.3398 34.325 17.667 34.6161 17.9255C34.9072 18.184 35.2583 18.3655 35.6375 18.4536C37.0868 18.7204 38.5807 18.6032 39.9707 18.1135L40.6198 17.9468C41.7472 17.595 42.9174 17.3987 44.098 17.3636C45.096 17.2546 46.0006 17.9571 46.1421 18.951C46.1773 19.5515 46.0415 20.1496 45.7504 20.6759C45.0787 21.8426 43.9613 22.1184 42.1347 22.2242L41.8955 22.2376C40.368 22.3209 38.4673 22.426 37.379 24.0317C36.9241 24.6738 36.7202 25.4602 36.8057 26.2425C37.0221 27.3638 38.0327 28.1534 39.1731 28.0924C39.4426 28.0922 39.712 28.0761 39.9797 28.0441C40.0922 28.0332 40.2055 28.0216 40.3172 28.0141C40.7576 27.967 41.2028 28.0276 41.6146 28.1907C41.7836 28.2693 41.9338 28.3834 42.0549 28.5252C42.1759 28.6669 42.2651 28.8331 42.3162 29.0124C42.3702 29.1833 42.3863 29.3638 42.3634 29.5416C42.3406 29.7193 42.2792 29.8899 42.1837 30.0416C41.7762 30.6782 40.992 30.6991 39.6896 30.5149C39.3055 30.4599 38.9239 30.3957 38.5413 30.3316C38.0355 30.2483 37.5298 30.1599 37.0181 30.0958C35.3997 29.8899 34.2048 30.4874 33.8257 31.6874C33.6571 32.2694 33.6687 32.8887 33.859 33.464C34.2406 34.664 34.9901 35.7135 36.0014 36.4639C37.2311 37.3285 38.578 38.0132 40.0013 38.4971L40.4946 38.6905C41.6712 39.158 42.8079 39.7171 43.1612 40.6354C43.5145 41.5538 42.8829 42.7554 42.1471 43.4804C41.764 43.8697 41.3038 44.1746 40.7959 44.3755C40.2881 44.5765 39.7438 44.6689 39.1981 44.647C37.0415 44.4879 36.0899 42.5846 35.0824 40.568C34.8107 40.0238 34.5291 39.4614 34.2258 38.9456C33.7298 38.0181 33.0081 37.2306 32.1275 36.6556C31.2981 36.2001 30.3727 35.9472 29.4269 35.9173C28.4811 35.8875 27.5417 36.0816 26.6852 36.4839C25.1993 37.0717 23.8513 37.9609 22.7261 39.0955C22.1057 39.752 21.5334 40.4524 21.0137 41.1912C20.6065 41.7638 20.1701 42.3151 19.7062 42.8428C19.0498 43.6322 18.2677 44.308 17.3913 44.8427C16.6484 45.3286 15.7461 45.5078 14.8739 45.3427C14.7042 45.2835 14.5484 45.1903 14.416 45.0688C14.2836 44.9473 14.1774 44.8001 14.1039 44.6361C13.8815 44.1776 13.8492 43.65 14.0138 43.1678C14.3038 42.5404 14.7075 41.9722 15.2046 41.492C15.3313 41.3511 15.4546 41.2103 15.5805 41.0686C16.425 40.1718 17.1096 39.1369 17.6045 38.0088C17.7833 37.6151 17.8726 37.1868 17.866 36.7545C17.8593 36.3222 17.7569 35.8968 17.5662 35.5089C16.7886 34.103 14.9829 33.9922 14.1304 33.9922H13.8871C12.8938 34.008 11.8921 34.1139 11.0089 34.2072L9.93555 34.3164C9.07806 34.3997 8.22057 34.4897 7.36484 34.6014C7.04737 34.6422 6.73156 34.6889 6.41487 34.7347C5.61158 34.8521 4.8533 34.963 4.08165 34.998C3.76945 35.0207 3.45569 35.007 3.14672 34.9572C2.91934 34.9196 2.70599 34.8224 2.52838 34.6756C2.29471 34.4356 2.16533 34.1131 2.16843 33.7781C2.15142 33.2382 2.29655 32.7056 2.58511 32.249C3.38929 31.059 5.24587 30.9066 6.92413 30.8566C7.27657 30.8463 7.62907 30.8385 7.98161 30.8332C9.45306 30.8492 10.9229 30.7317 12.3732 30.4824C15.1047 29.9315 16.6647 28.8083 17.0072 27.16C17.0256 27.0767 17.0397 26.9933 17.0513 26.91C17.0822 26.6813 17.0822 26.4496 17.0513 26.2209C16.878 25.0193 15.9064 24.1792 14.1639 23.7259C12.6722 23.3924 11.1426 23.2601 9.61574 23.3326H9.47571C9.19486 23.3392 8.9099 23.3534 8.62319 23.3692C7.63447 23.5035 6.62826 23.4161 5.67749 23.1134C5.35364 22.9943 5.08176 22.7655 4.90916 22.4667C4.82252 22.1852 4.80935 21.8862 4.8709 21.5981C4.93245 21.31 5.06667 21.0425 5.26081 20.821C6.83741 18.6594 9.34397 19.2052 11.9914 19.7835C12.6014 19.9168 13.2022 20.0476 13.7822 20.1418C17.1038 20.6868 17.5521 19.876 17.7196 19.5701C17.8485 19.3038 17.8846 19.002 17.8222 18.7128C17.7598 18.4236 17.6025 18.1635 17.3753 17.974Z" fill="white"/>
<path d="M28.0249 49.5711C28.3329 49.6459 28.6487 49.6846 28.9657 49.6861C29.6543 49.696 30.3259 49.4718 30.8706 49.0503C31.3708 48.5996 31.7649 48.0436 32.0242 47.4222C32.2836 46.8008 32.4019 46.1297 32.3705 45.4571C32.4099 44.2995 32.102 43.1567 31.4864 42.1756C31.1321 41.5976 30.6265 41.1276 30.0243 40.8164C29.422 40.5052 28.7462 40.3646 28.0698 40.4098C27.4164 40.5009 26.8004 40.7693 26.2888 41.1858C25.7771 41.6022 25.3893 42.1509 25.1674 42.7722C24.7594 43.6111 24.5888 44.5456 24.674 45.4745C24.7592 46.4035 25.0969 47.2914 25.6507 48.0421C26.2447 48.8074 27.0823 49.3469 28.0249 49.5711ZM26.7124 43.4046C26.8206 43.0626 27.0207 42.757 27.2908 42.5209C27.5609 42.2849 27.8906 42.1276 28.244 42.0663C28.2977 42.0603 28.3516 42.0572 28.4056 42.0571C28.7546 42.0805 29.0925 42.1892 29.3897 42.3737C29.6868 42.5583 29.9341 42.8129 30.1098 43.1154C30.5297 43.813 30.7362 44.6184 30.7039 45.432C30.7325 45.8547 30.6707 46.2786 30.5225 46.6754C30.3744 47.0723 30.1433 47.433 29.8448 47.7336C29.6385 47.879 29.401 47.9741 29.1514 48.0112C28.9018 48.0482 28.6469 48.0262 28.4073 47.9469C27.8374 47.8075 27.3313 47.4798 26.9707 47.017C26.6059 46.4946 26.3892 45.8832 26.3437 45.2477C26.2983 44.6122 26.4257 43.9762 26.7124 43.4072V43.4046ZM20.0843 6.14677C21.6951 6.14677 23.0009 4.84096 23.0009 3.23017C23.0009 1.61938 21.695 0.313568 20.0843 0.313568C18.4736 0.313568 17.1677 1.61938 17.1677 3.23017C17.1677 4.84096 18.4735 6.14677 20.0843 6.14677ZM20.0843 1.98021C20.7746 1.98021 21.3343 2.53986 21.3343 3.23017C21.3343 3.92048 20.7746 4.48013 20.0843 4.48013C19.394 4.48013 18.8344 3.92048 18.8344 3.23017C18.8344 2.53986 19.3939 1.98021 20.0843 1.98021ZM3.83487 17.1764C5.67573 17.1764 7.16806 15.6841 7.16806 13.8432C7.16806 12.0023 5.67573 10.51 3.83487 10.51C1.99402 10.51 0.501587 12.0022 0.501587 13.8431C0.501587 15.684 1.99392 17.1764 3.83487 17.1764ZM3.83487 12.1766C4.75535 12.1766 5.50152 12.9227 5.50152 13.8432C5.50152 14.7637 4.75535 15.5098 3.83487 15.5098C2.9144 15.5098 2.16823 14.7637 2.16823 13.8432C2.16823 12.9227 2.9144 12.1766 3.83487 12.1766ZM18.9935 17.1314C19.5673 17.3353 20.1719 17.439 20.7809 17.438C21.7038 17.4361 22.6109 17.198 23.4158 16.7463C24.9287 15.8406 26.0893 14.4479 26.7074 12.7965C26.7939 12.593 26.7961 12.3635 26.7134 12.1585C26.6307 11.9535 26.47 11.7897 26.2666 11.7031C26.0631 11.6166 25.8336 11.6144 25.6286 11.6971C25.4236 11.7798 25.2598 11.9405 25.1732 12.1439C24.7036 13.4536 23.7992 14.5627 22.6108 15.2863C22.1501 15.5467 21.6392 15.7059 21.1122 15.7533C20.5851 15.8007 20.054 15.7353 19.5543 15.5613C19.3461 15.4869 19.1169 15.4983 18.9171 15.5929C18.7173 15.6876 18.5632 15.8577 18.4889 16.0659C18.4145 16.2741 18.4259 16.5033 18.5205 16.7031C18.6152 16.9029 18.7853 17.057 18.9935 17.1314ZM47.5834 30.5092C45.9726 30.5092 44.6668 31.8151 44.6668 33.4258C44.6668 35.0366 45.9726 36.3424 47.5834 36.3424C49.1942 36.3424 50.5 35.0366 50.5 33.4258C50.4999 31.8151 49.1941 30.5092 47.5834 30.5092ZM47.5834 34.6758C46.8931 34.6758 46.3335 34.1162 46.3335 33.4258C46.3335 32.7355 46.8931 32.1759 47.5834 32.1759C48.2737 32.1759 48.8334 32.7355 48.8334 33.4258C48.8334 34.1162 48.2737 34.6758 47.5834 34.6758Z" fill="white"/>
</g>
<defs>
<clipPath id="clip0_82_330">
<rect width="50" height="50" fill="white" transform="translate(0.5)"/>
</clipPath>
</defs>
</svg>
