<svg width="87" height="50" viewBox="0 0 87 50" fill="none" xmlns="http://www.w3.org/2000/svg">
<g clip-path="url(#clip0_82_322)">
<path d="M66.1382 33.9358V5.83334C66.1382 5.1703 65.8748 4.53442 65.4059 4.06558C64.9371 3.59674 64.3012 3.33334 63.6382 3.33334H28.6382C27.9751 3.33334 27.3392 3.59674 26.8704 4.06558C26.4015 4.53442 26.1382 5.1703 26.1382 5.83334V33.9358L21.2573 42.0708C21.1794 42.2004 21.1382 42.3488 21.1382 42.5V45C21.1382 45.442 21.3137 45.866 21.6263 46.1785C21.9389 46.4911 22.3628 46.6667 22.8048 46.6667H69.4715C69.9135 46.6667 70.3374 46.4911 70.65 46.1785C70.9626 45.866 71.1382 45.442 71.1382 45V42.5C71.1381 42.3488 71.0969 42.2004 71.019 42.0708L66.1382 33.9358ZM27.8048 5.83334C27.8048 5.61233 27.8926 5.40037 28.0489 5.24409C28.2052 5.08781 28.4171 5.00001 28.6382 5.00001H63.6382C63.8592 5.00001 64.0711 5.08781 64.2274 5.24409C64.3837 5.40037 64.4715 5.61233 64.4715 5.83334V33.3333H27.8048V5.83334ZM27.4432 35H64.8331L68.8332 41.6667H55.8698L54.6198 38.5475C54.4971 38.2379 54.2841 37.9723 54.0084 37.7855C53.7326 37.5987 53.407 37.4992 53.074 37.5H39.2023C38.8689 37.4989 38.5429 37.5984 38.2668 37.7854C37.9907 37.9724 37.7775 38.2383 37.6548 38.5483L36.4073 41.6667H23.4432L27.4432 35ZM54.0748 41.6667H38.2023L39.2023 39.1667H53.074L54.0748 41.6667ZM69.4715 45H22.8048V43.3333H69.4715V45Z" fill="white"/>
</g>
<path d="M71.9774 31.642H72.0683C72.2998 31.642 72.523 31.5561 72.6949 31.401C72.8667 31.2459 72.975 31.0327 72.9988 30.8024L73.7208 23.7858C73.7373 23.6617 73.7286 23.5356 73.6955 23.415C73.6623 23.2943 73.6053 23.1815 73.5277 23.0832C73.4502 22.985 73.3538 22.9033 73.2441 22.8429C73.1345 22.7826 73.0138 22.7449 72.8893 22.732C72.7648 22.7191 72.639 22.7314 72.5193 22.768C72.3997 22.8046 72.2885 22.8648 72.1925 22.9451C72.0965 23.0254 72.0176 23.1241 71.9605 23.2355C71.9033 23.3468 71.869 23.4685 71.8597 23.5933L71.1431 30.6152C71.1177 30.862 71.1913 31.1088 71.3477 31.3013C71.5041 31.4939 71.7306 31.6164 71.9774 31.642ZM84.0746 30.1981C83.9372 29.9909 83.7234 29.8466 83.4799 29.7965C83.2364 29.7464 82.983 29.7946 82.775 29.9307L76.2558 34.2091C76.0865 34.3209 75.9581 34.4846 75.89 34.6757C75.8218 34.8668 75.8176 35.0748 75.8779 35.2685C75.9383 35.4621 76.0599 35.631 76.2245 35.7495C76.3891 35.8681 76.5878 35.9299 76.7906 35.9258C76.9798 35.9302 77.166 35.878 77.3254 35.7761L83.8446 31.4976C84.0469 31.3554 84.1846 31.1388 84.2277 30.8953C84.2707 30.6518 84.2157 30.4011 84.0746 30.1981ZM86.0694 41.6214L78.4859 40.2577C78.2412 40.2137 77.9891 40.2688 77.785 40.4107C77.5809 40.5526 77.4416 40.7698 77.3976 41.0144C77.3536 41.2591 77.4086 41.5112 77.5506 41.7153C77.6925 41.9194 77.9097 42.0588 78.1543 42.1028L85.7325 43.4665H85.8983C86.1367 43.4735 86.3688 43.3891 86.5472 43.2307C86.7255 43.0722 86.8366 42.8517 86.8578 42.614C86.879 42.3764 86.8086 42.1397 86.6611 41.9522C86.5135 41.7647 86.3 41.6407 86.064 41.6054L86.0694 41.6214Z" fill="white"/>
<path d="M17.4861 38.6825L17.4073 38.6371C17.2068 38.5214 16.9705 38.4842 16.7442 38.5325C16.5178 38.5809 16.3174 38.7114 16.1816 38.8989L12.0481 44.6145C11.9718 44.7137 11.9162 44.8273 11.8846 44.9484C11.853 45.0694 11.846 45.1957 11.864 45.3195C11.882 45.4434 11.9247 45.5623 11.9895 45.6694C12.0543 45.7765 12.1399 45.8695 12.2413 45.9429C12.3426 46.0163 12.4577 46.0686 12.5796 46.0967C12.7016 46.1249 12.828 46.1283 12.9512 46.1067C13.0745 46.0852 13.1922 46.0391 13.2974 45.9713C13.4026 45.9035 13.4931 45.8152 13.5636 45.7118L17.6952 39.9889C17.8406 39.7879 17.9002 39.5374 17.861 39.2924C17.8218 39.0475 17.6869 38.8281 17.4861 38.6825ZM6.28758 33.8844C6.30302 34.1325 6.41596 34.3645 6.60177 34.5296C6.78757 34.6947 7.03115 34.7796 7.27934 34.7658L15.0644 34.3202C15.2669 34.308 15.4599 34.2304 15.6145 34.099C15.769 33.9676 15.8767 33.7896 15.9213 33.5917C15.9659 33.3938 15.9449 33.1868 15.8617 33.0018C15.7784 32.8168 15.6373 32.6639 15.4596 32.5661C15.2979 32.4677 15.1106 32.4198 14.9215 32.4284L7.13652 32.874C6.89023 32.8961 6.66269 33.0148 6.50362 33.2041C6.34456 33.3934 6.26689 33.638 6.28758 33.8844ZM10.2717 22.9941L16.1573 27.9669C16.3472 28.1273 16.5931 28.2057 16.8408 28.1849C17.0885 28.164 17.3178 28.0456 17.4782 27.8557C17.6386 27.6658 17.717 27.4199 17.6962 27.1722C17.6753 26.9245 17.5569 26.6952 17.367 26.5348L11.486 21.5647L11.3424 21.4818C11.1394 21.3565 10.8962 21.3135 10.6625 21.3616C10.4289 21.4096 10.2224 21.5451 10.0852 21.7403C9.94807 21.9355 9.89065 22.1757 9.92468 22.4118C9.95871 22.6479 10.0816 22.8622 10.2683 23.0107L10.2717 22.9941Z" fill="white"/>
<defs>
<clipPath id="clip0_82_322">
<rect width="50" height="50" fill="white" transform="translate(21.1382)"/>
</clipPath>
</defs>
</svg>
