<svg width="51" height="50" viewBox="0 0 51 50" fill="none" xmlns="http://www.w3.org/2000/svg">
<g clip-path="url(#clip0_82_115)">
<path d="M40.5 6.66675H10.5C10.0579 6.66675 9.63401 6.84234 9.32145 7.1549C9.00889 7.46746 8.8333 7.89139 8.8333 8.33341V30.0001C8.8333 30.4421 9.00889 30.866 9.32145 31.1786C9.63401 31.4912 10.0579 31.6667 10.5 31.6667H40.5C40.942 31.6667 41.3659 31.4912 41.6785 31.1786C41.991 30.866 42.1666 30.4421 42.1666 30.0001V8.33341C42.1666 7.89139 41.991 7.46746 41.6785 7.1549C41.3659 6.84234 40.942 6.66675 40.5 6.66675ZM40.5 30.0001H10.5V8.33341H40.5V30.0001Z" fill="black"/>
<path d="M45.5 33.9358V5.83334C45.5 5.1703 45.2366 4.53442 44.7678 4.06558C44.2989 3.59674 43.663 3.33334 43 3.33334H8C7.33696 3.33334 6.70107 3.59674 6.23223 4.06558C5.76339 4.53442 5.5 5.1703 5.5 5.83334V33.9358L0.619167 42.0708C0.541242 42.2004 0.500048 42.3488 0.5 42.5L0.5 45C0.5 45.442 0.675595 45.866 0.988155 46.1785C1.30072 46.4911 1.72464 46.6667 2.16667 46.6667H48.8333C49.2754 46.6667 49.6993 46.4911 50.0118 46.1785C50.3244 45.866 50.5 45.442 50.5 45V42.5C50.5 42.3488 50.4588 42.2004 50.3808 42.0708L45.5 33.9358ZM7.16667 5.83334C7.16667 5.61233 7.25446 5.40037 7.41074 5.24409C7.56702 5.08781 7.77899 5.00001 8 5.00001H43C43.221 5.00001 43.433 5.08781 43.5893 5.24409C43.7455 5.40037 43.8333 5.61233 43.8333 5.83334V33.3333H7.16667V5.83334ZM6.805 35H44.195L48.195 41.6667H35.2317L33.9817 38.5475C33.859 38.2379 33.6459 37.9723 33.3702 37.7855C33.0945 37.5987 32.7689 37.4992 32.4358 37.5H18.5642C18.2307 37.4989 17.9047 37.5984 17.6286 37.7854C17.3526 37.9724 17.1393 38.2383 17.0167 38.5483L15.7692 41.6667H2.805L6.805 35ZM33.4367 41.6667H17.5642L18.5642 39.1667H32.4358L33.4367 41.6667ZM48.8333 45H2.16667V43.3333H48.8333V45Z" fill="white"/>
<path d="M15.7442 18.0893C15.9005 18.2455 16.1124 18.3333 16.3334 18.3333C16.5543 18.3333 16.7662 18.2455 16.9225 18.0893L18.8334 16.1784L20.7442 18.0893C20.9014 18.2411 21.1119 18.3251 21.3304 18.3232C21.5489 18.3213 21.7579 18.2336 21.9124 18.0791C22.0669 17.9246 22.1545 17.7156 22.1564 17.4971C22.1583 17.2786 22.0743 17.0681 21.9225 16.9109L20.0117 15.0001L21.9225 13.0893C22.0743 12.9321 22.1583 12.7216 22.1564 12.5031C22.1545 12.2846 22.0669 12.0756 21.9124 11.9211C21.7579 11.7666 21.5489 11.6789 21.3304 11.677C21.1119 11.6751 20.9014 11.7591 20.7442 11.9109L18.8334 13.8218L16.9225 11.9109C16.7654 11.7591 16.5548 11.6751 16.3364 11.677C16.1179 11.6789 15.9088 11.7666 15.7543 11.9211C15.5998 12.0756 15.5122 12.2846 15.5103 12.5031C15.5084 12.7216 15.5924 12.9321 15.7442 13.0893L17.655 15.0001L15.7442 16.9109C15.588 17.0672 15.5002 17.2791 15.5002 17.5001C15.5002 17.7211 15.588 17.933 15.7442 18.0893ZM29.0775 18.0893C29.2338 18.2455 29.4457 18.3333 29.6667 18.3333C29.8877 18.3333 30.0996 18.2455 30.2559 18.0893L32.1667 16.1784L34.0775 18.0893C34.2347 18.2411 34.4452 18.3251 34.6637 18.3232C34.8822 18.3213 35.0912 18.2336 35.2457 18.0791C35.4002 17.9246 35.4879 17.7156 35.4897 17.4971C35.4916 17.2786 35.4077 17.0681 35.2559 16.9109L33.345 15.0001L35.2559 13.0893C35.4077 12.9321 35.4916 12.7216 35.4897 12.5031C35.4879 12.2846 35.4002 12.0756 35.2457 11.9211C35.0912 11.7666 34.8822 11.6789 34.6637 11.677C34.4452 11.6751 34.2347 11.7591 34.0775 11.9109L32.1667 13.8218L30.2559 11.9109C30.0987 11.7591 29.8882 11.6751 29.6697 11.677C29.4512 11.6789 29.2422 11.7666 29.0877 11.9211C28.9332 12.0756 28.8455 12.2846 28.8436 12.5031C28.8417 12.7216 28.9257 12.9321 29.0775 13.0893L30.9884 15.0001L29.0775 16.9109C28.9213 17.0672 28.8335 17.2791 28.8335 17.5001C28.8335 17.7211 28.9213 17.933 29.0775 18.0893ZM15.295 26.3809C15.8713 25.7884 16.5177 25.2684 17.22 24.8326C17.0905 25.5106 17.2031 26.2126 17.5382 26.8161C17.8732 27.4196 18.4094 27.8864 19.0534 28.1351C19.7814 28.4059 20.5863 28.3822 21.2972 28.0689C22.008 27.7557 22.5686 27.1776 22.86 26.4576L24.4642 22.5409C24.7975 22.5201 25.1417 22.5043 25.4967 22.5043C32.2175 22.5043 35.6634 26.3459 35.7017 26.3851C35.8467 26.552 36.052 26.6544 36.2725 26.6699C36.493 26.6853 36.7107 26.6126 36.8775 26.4676C37.0444 26.3226 37.1468 26.1173 37.1623 25.8968C37.1778 25.6763 37.105 25.4586 36.96 25.2918C36.805 25.1059 33.0167 20.8334 25.5 20.8334C17.9834 20.8334 14.195 25.1059 14.0367 25.2876C13.8917 25.4545 13.8189 25.6721 13.8344 25.8926C13.8499 26.1131 13.9523 26.3184 14.1192 26.4634C14.2861 26.6084 14.5037 26.6812 14.7242 26.6657C14.9447 26.6502 15.15 26.5478 15.295 26.3809ZM18.9059 24.9493L19.4659 23.6634C20.4666 23.2537 21.5084 22.9525 22.5734 22.7651L21.3159 25.8401C21.1944 26.1578 20.9518 26.4144 20.6413 26.5534C20.3309 26.6924 19.978 26.7027 19.66 26.5818C19.3482 26.4593 19.0956 26.2211 18.9551 25.9169C18.8146 25.6128 18.797 25.2661 18.9059 24.9493Z" fill="white"/>
</g>
<defs>
<clipPath id="clip0_82_115">
<rect width="50" height="50" fill="white" transform="translate(0.5)"/>
</clipPath>
</defs>
</svg>
