<svg width="50" height="50" viewBox="0 0 50 50" fill="none" xmlns="http://www.w3.org/2000/svg">
<path d="M45 33.9358V5.83331C45 5.17027 44.7366 4.53439 44.2678 4.06555C43.7989 3.59671 43.163 3.33331 42.5 3.33331H7.5C6.83696 3.33331 6.20107 3.59671 5.73223 4.06555C5.26339 4.53439 5 5.17027 5 5.83331V33.9358L0.119167 42.0708C0.0412416 42.2004 4.78591e-05 42.3488 0 42.5L0 45C0 45.442 0.175595 45.8659 0.488155 46.1785C0.800716 46.4911 1.22464 46.6666 1.66667 46.6666H48.3333C48.7754 46.6666 49.1993 46.4911 49.5118 46.1785C49.8244 45.8659 50 45.442 50 45V42.5C50 42.3488 49.9588 42.2004 49.8808 42.0708L45 33.9358ZM6.66667 5.83331C6.66667 5.6123 6.75446 5.40034 6.91074 5.24406C7.06702 5.08778 7.27899 4.99998 7.5 4.99998H42.5C42.721 4.99998 42.933 5.08778 43.0893 5.24406C43.2455 5.40034 43.3333 5.6123 43.3333 5.83331V33.3333H6.66667V5.83331ZM6.305 35H43.695L47.695 41.6666H34.7317L33.4817 38.5475C33.359 38.2378 33.1459 37.9723 32.8702 37.7855C32.5945 37.5986 32.2689 37.4992 31.9358 37.5H18.0642C17.7307 37.4989 17.4047 37.5983 17.1286 37.7854C16.8526 37.9724 16.6393 38.2383 16.5167 38.5483L15.2692 41.6666H2.305L6.305 35ZM32.9367 41.6666H17.0642L18.0642 39.1666H31.9358L32.9367 41.6666ZM48.3333 45H1.66667V43.3333H48.3333V45Z" fill="white"/>
<g clip-path="url(#clip0_82_122)">
<path d="M25 15.6875C24.7928 15.6875 24.5941 15.6052 24.4476 15.4587C24.3011 15.3122 24.2188 15.1135 24.2188 14.9062V11.7812C24.2188 11.574 24.3011 11.3753 24.4476 11.2288C24.5941 11.0823 24.7928 11 25 11C25.2072 11 25.4059 11.0823 25.5524 11.2288C25.6989 11.3753 25.7812 11.574 25.7812 11.7812V14.9062C25.7812 15.1135 25.6989 15.3122 25.5524 15.4587C25.4059 15.6052 25.2072 15.6875 25 15.6875ZM25 27C24.7928 27 24.5941 26.9177 24.4476 26.7712C24.3011 26.6247 24.2188 26.426 24.2188 26.2188V23.0938C24.2188 22.8865 24.3011 22.6878 24.4476 22.5413C24.5941 22.3948 24.7928 22.3125 25 22.3125C25.2072 22.3125 25.4059 22.3948 25.5524 22.5413C25.6989 22.6878 25.7812 22.8865 25.7812 23.0938V26.2188C25.7812 26.426 25.6989 26.6247 25.5524 26.7712C25.4059 26.9177 25.2072 27 25 27ZM20.9062 19.7812H17.7812C17.574 19.7812 17.3753 19.6989 17.2288 19.5524C17.0823 19.4059 17 19.2072 17 19C17 18.7928 17.0823 18.5941 17.2288 18.4476C17.3753 18.3011 17.574 18.2188 17.7812 18.2188H20.9062C21.1135 18.2188 21.3122 18.3011 21.4587 18.4476C21.6052 18.5941 21.6875 18.7928 21.6875 19C21.6875 19.2072 21.6052 19.4059 21.4587 19.5524C21.3122 19.6989 21.1135 19.7812 20.9062 19.7812ZM32.2188 19.7812H29.0938C28.8865 19.7812 28.6878 19.6989 28.5413 19.5524C28.3948 19.4059 28.3125 19.2072 28.3125 19C28.3125 18.7928 28.3948 18.5941 28.5413 18.4476C28.6878 18.3011 28.8865 18.2188 29.0938 18.2188H32.2188C32.426 18.2188 32.6247 18.3011 32.7712 18.4476C32.9177 18.5941 33 18.7928 33 19C33 19.2072 32.9177 19.4059 32.7712 19.5524C32.6247 19.6989 32.426 19.7812 32.2188 19.7812ZM27.8947 16.8866C27.7403 16.8863 27.5894 16.8403 27.4612 16.7543C27.3329 16.6683 27.233 16.5463 27.174 16.4036C27.1151 16.2609 27.0997 16.1039 27.1299 15.9525C27.1602 15.8011 27.2346 15.662 27.3438 15.5528L29.5519 13.3438C29.6236 13.2677 29.7098 13.2068 29.8055 13.1647C29.9012 13.1225 30.0043 13.1 30.1088 13.0985C30.2133 13.097 30.3171 13.1164 30.414 13.1557C30.5108 13.195 30.5988 13.2533 30.6728 13.3272C30.7467 13.4012 30.805 13.4892 30.8443 13.586C30.8836 13.6829 30.903 13.7867 30.9015 13.8912C30.9 13.9957 30.8775 14.0988 30.8353 14.1945C30.7932 14.2902 30.7323 14.3764 30.6562 14.4481L28.4466 16.6578C28.3741 16.7304 28.2881 16.7879 28.1934 16.8272C28.0987 16.8664 27.9972 16.8866 27.8947 16.8866ZM19.8956 24.8856C19.7411 24.8855 19.5902 24.8396 19.4617 24.7537C19.3333 24.6679 19.2333 24.5458 19.1742 24.4031C19.1151 24.2603 19.0997 24.1033 19.1299 23.9518C19.1601 23.8003 19.2345 23.6611 19.3438 23.5519L21.5528 21.3438C21.6254 21.2712 21.7115 21.2136 21.8063 21.1744C21.9011 21.1351 22.0027 21.1149 22.1053 21.1149C22.2079 21.1149 22.3095 21.1351 22.4043 21.1744C22.4991 21.2136 22.5853 21.2712 22.6578 21.3438C22.7304 21.4163 22.7879 21.5024 22.8272 21.5972C22.8665 21.692 22.8867 21.7936 22.8867 21.8962C22.8867 21.9989 22.8665 22.1005 22.8272 22.1953C22.7879 22.2901 22.7304 22.3762 22.6578 22.4487L20.4481 24.6562C20.3757 24.729 20.2896 24.7867 20.1948 24.8261C20.0999 24.8654 19.9983 24.8857 19.8956 24.8856ZM22.1053 16.8866C22.0027 16.8867 21.9011 16.8666 21.8062 16.8273C21.7114 16.7881 21.6253 16.7305 21.5528 16.6578L19.3438 14.4481C19.2677 14.3764 19.2068 14.2902 19.1647 14.1945C19.1225 14.0988 19.1 13.9957 19.0985 13.8912C19.097 13.7867 19.1164 13.6829 19.1557 13.586C19.195 13.4892 19.2533 13.4012 19.3272 13.3272C19.4012 13.2533 19.4892 13.195 19.586 13.1557C19.6829 13.1164 19.7867 13.097 19.8912 13.0985C19.9957 13.1 20.0988 13.1225 20.1945 13.1647C20.2902 13.2068 20.3764 13.2677 20.4481 13.3438L22.6578 15.5534C22.7671 15.6627 22.8415 15.8019 22.8717 15.9535C22.9018 16.1051 22.8864 16.2622 22.8272 16.4049C22.7681 16.5477 22.6679 16.6697 22.5394 16.7556C22.4109 16.8414 22.2599 16.8872 22.1053 16.8872V16.8866ZM30.1044 24.8856C30.0017 24.8857 29.9001 24.8654 29.8052 24.8261C29.7104 24.7867 29.6243 24.729 29.5519 24.6562L27.3438 22.4472C27.2094 22.2985 27.1374 22.1039 27.1424 21.9037C27.1475 21.7034 27.2293 21.5127 27.371 21.371C27.5127 21.2293 27.7034 21.1475 27.9037 21.1424C28.1039 21.1374 28.2985 21.2094 28.4472 21.3438L30.6562 23.5519C30.7655 23.6611 30.84 23.8004 30.8701 23.9519C30.9003 24.1035 30.8848 24.2606 30.8257 24.4034C30.7665 24.5461 30.6664 24.6682 30.5379 24.754C30.4094 24.8399 30.2583 24.8857 30.1038 24.8856H30.1044Z" fill="white"/>
</g>
<defs>
<clipPath id="clip0_82_122">
<rect width="16" height="16" fill="white" transform="translate(17 11)"/>
</clipPath>
</defs>
</svg>
