<svg width="51" height="50" viewBox="0 0 51 50" fill="none" xmlns="http://www.w3.org/2000/svg">
<g clip-path="url(#clip0_82_131)">
<path d="M45.5 33.9358V5.83331C45.5 5.17027 45.2366 4.53439 44.7678 4.06555C44.2989 3.59671 43.663 3.33331 43 3.33331H8C7.33696 3.33331 6.70107 3.59671 6.23223 4.06555C5.76339 4.53439 5.5 5.17027 5.5 5.83331V33.9358L0.619167 42.0708C0.541242 42.2004 0.500048 42.3488 0.5 42.5L0.5 45C0.5 45.442 0.675595 45.8659 0.988155 46.1785C1.30072 46.4911 1.72464 46.6666 2.16667 46.6666H48.8333C49.2754 46.6666 49.6993 46.4911 50.0118 46.1785C50.3244 45.8659 50.5 45.442 50.5 45V42.5C50.5 42.3488 50.4588 42.2004 50.3808 42.0708L45.5 33.9358ZM7.16667 5.83331C7.16667 5.6123 7.25446 5.40034 7.41074 5.24406C7.56702 5.08778 7.77899 4.99998 8 4.99998H43C43.221 4.99998 43.433 5.08778 43.5893 5.24406C43.7455 5.40034 43.8333 5.6123 43.8333 5.83331V33.3333H7.16667V5.83331ZM6.805 35H44.195L48.195 41.6666H35.2317L33.9817 38.5475C33.859 38.2378 33.6459 37.9723 33.3702 37.7855C33.0945 37.5986 32.7689 37.4992 32.4358 37.5H18.5642C18.2307 37.4989 17.9047 37.5983 17.6286 37.7854C17.3526 37.9724 17.1393 38.2383 17.0167 38.5483L15.7692 41.6666H2.805L6.805 35ZM33.4367 41.6666H17.5642L18.5642 39.1666H32.4358L33.4367 41.6666ZM48.8333 45H2.16667V43.3333H48.8333V45Z" fill="white"/>
<path d="M15.2337 19.8909C15.1197 19.8779 15.0128 19.8287 14.9288 19.7505C14.8449 19.6723 14.7882 19.5691 14.7672 19.4563C14.7462 19.3435 14.7619 19.2269 14.8121 19.1237C14.8624 19.0204 14.9443 18.9361 15.0461 18.8829C16.6212 18.3499 17.9812 17.321 18.9224 15.9502V10.3315C18.1531 10.5785 17.3227 10.5564 16.5676 10.269C15.8125 9.98159 15.1776 9.44585 14.7673 8.74983C14.709 8.62739 14.6993 8.48741 14.74 8.35808C14.7808 8.22875 14.8691 8.11968 14.9871 8.05284C15.1102 7.99498 15.2506 7.98605 15.38 8.02786C15.5095 8.06967 15.6181 8.15909 15.6841 8.27802C15.7967 8.48712 16.7564 10.0955 19.2763 9.13585C19.3547 9.10343 19.44 9.09135 19.5244 9.10072C19.6088 9.1101 19.6894 9.14062 19.7588 9.18947C19.8273 9.23827 19.8835 9.30253 19.9226 9.37704C19.9617 9.45155 19.9827 9.53423 19.984 9.61838V16.0896C19.986 16.1715 19.9675 16.2526 19.9304 16.3255C19.8821 16.4167 18.7401 18.5881 15.4428 19.8587C15.3756 19.8817 15.3048 19.8926 15.2337 19.8909Z" fill="white"/>
<path d="M15.2341 19.891C15.1702 19.8908 15.1068 19.8799 15.0465 19.8588C14.0395 19.4773 13.1014 18.934 12.2693 18.2504C11.5837 17.7237 11.0035 17.0725 10.559 16.331C10.5207 16.2563 10.5005 16.1737 10.5 16.0898V9.61851C10.5018 9.53389 10.5237 9.45092 10.5638 9.37637C10.6038 9.30182 10.661 9.23781 10.7305 9.18959C10.7997 9.14028 10.8804 9.10947 10.9648 9.10009C11.0493 9.09071 11.1347 9.10306 11.2131 9.13598C13.7812 10.1439 14.7302 8.35321 14.7677 8.27815C14.8337 8.15787 14.9433 8.06749 15.074 8.0256C15.2047 7.98371 15.3464 7.9935 15.47 8.05297C15.589 8.11892 15.6784 8.22761 15.7202 8.35701C15.762 8.48642 15.7531 8.62688 15.6952 8.74995C15.2856 9.44669 14.6508 9.98303 13.8955 10.2705C13.1401 10.5581 12.3093 10.5796 11.5401 10.3316V15.9504C11.9187 16.5256 12.3855 17.0377 12.9234 17.4676C13.6738 18.0691 14.5154 18.547 15.4164 18.8831C15.5436 18.9356 15.6457 19.0351 15.7016 19.1608C15.7575 19.2866 15.7629 19.429 15.7167 19.5586C15.6772 19.6549 15.6105 19.7375 15.5248 19.7966C15.4392 19.8556 15.3382 19.8884 15.2341 19.891ZM37.9934 29.933H32.4068C32.0077 29.9302 31.6259 29.7696 31.3447 29.4864C31.0634 29.2031 30.9056 28.8202 30.9056 28.4211V23.8102C30.9056 23.4111 31.0634 23.0281 31.3447 22.7449C31.6259 22.4617 32.0077 22.3011 32.4068 22.2983H37.9934C38.3935 22.2997 38.7767 22.4596 39.0591 22.743C39.3414 23.0264 39.5 23.4102 39.5 23.8102V28.4211C39.5 28.8211 39.3414 29.2049 39.0591 29.4883C38.7767 29.7716 38.3935 29.9316 37.9934 29.933ZM32.4068 23.3599C32.3451 23.3599 32.284 23.3721 32.2271 23.3959C32.1701 23.4196 32.1185 23.4545 32.0751 23.4984C32.0317 23.5423 31.9975 23.5943 31.9743 23.6515C31.9512 23.7087 31.9397 23.77 31.9404 23.8317V28.4425C31.9397 28.5042 31.9512 28.5654 31.9743 28.6227C31.9975 28.6799 32.0317 28.7319 32.0751 28.7758C32.1185 28.8197 32.1701 28.8545 32.2271 28.8783C32.284 28.9021 32.3451 28.9143 32.4068 28.9143H37.9934C38.1181 28.9129 38.2373 28.8628 38.3255 28.7746C38.4137 28.6864 38.4639 28.5672 38.4652 28.4425V23.8317C38.4639 23.707 38.4137 23.5878 38.3255 23.4996C38.2373 23.4114 38.1181 23.3613 37.9934 23.3599H32.4068Z" fill="white"/>
<path d="M37.8694 23.3595C37.7272 23.3595 37.5909 23.303 37.4903 23.2025C37.3898 23.1019 37.3333 22.9655 37.3333 22.8233V21.2953C37.305 20.7136 37.054 20.1651 36.6323 19.7634C36.2106 19.3617 35.6505 19.1377 35.0681 19.1377C34.4857 19.1377 33.9256 19.3617 33.5039 19.7634C33.0822 20.1651 32.8312 20.7136 32.8029 21.2953V22.8394C32.7738 22.9554 32.7069 23.0583 32.6127 23.1318C32.5184 23.2053 32.4023 23.2452 32.2828 23.2452C32.1633 23.2452 32.0472 23.2053 31.953 23.1318C31.8588 23.0583 31.7918 22.9554 31.7628 22.8394V21.2953C31.7972 20.4417 32.1604 19.6346 32.7765 19.0428C33.3926 18.451 34.2138 18.1205 35.0681 18.1205C35.9224 18.1205 36.7435 18.451 37.3596 19.0428C37.9758 19.6346 38.339 20.4417 38.3734 21.2953V22.8394C38.3696 22.9734 38.3158 23.1011 38.2225 23.1974C38.1292 23.2937 38.0033 23.3515 37.8694 23.3595Z" fill="white"/>
<path d="M20.8475 24.1641H15.0947C14.9787 24.135 14.8759 24.0681 14.8023 23.9738C14.7288 23.8796 14.6889 23.7635 14.6889 23.644C14.6889 23.5245 14.7288 23.4084 14.8023 23.3142C14.8759 23.22 14.9787 23.153 15.0947 23.124H20.8475C20.9634 23.153 21.0663 23.22 21.1398 23.3142C21.2134 23.4084 21.2533 23.5245 21.2533 23.644C21.2533 23.7635 21.2134 23.8796 21.1398 23.9738C21.0663 24.0681 20.9634 24.135 20.8475 24.1641ZM20.8475 25.9655H15.0947C14.9787 25.9365 14.8759 25.8695 14.8023 25.7753C14.7288 25.6811 14.6889 25.565 14.6889 25.4455C14.6889 25.3259 14.7288 25.2099 14.8023 25.1156C14.8759 25.0214 14.9787 24.9545 15.0947 24.9254H20.8475C20.9634 24.9545 21.0663 25.0214 21.1398 25.1156C21.2134 25.2099 21.2533 25.3259 21.2533 25.4455C21.2533 25.565 21.2134 25.6811 21.1398 25.7753C21.0663 25.8695 20.9634 25.9365 20.8475 25.9655ZM20.8475 27.7884H15.0947C14.9525 27.7884 14.8161 27.7319 14.7156 27.6314C14.615 27.5308 14.5585 27.3945 14.5585 27.2523C14.5585 27.1101 14.615 26.9737 14.7156 26.8732C14.8161 26.7726 14.9525 26.7161 15.0947 26.7161H20.8475C20.9634 26.7452 21.0663 26.8121 21.1398 26.9064C21.2134 27.0006 21.2533 27.1167 21.2533 27.2362C21.2533 27.3557 21.2134 27.4718 21.1398 27.566C21.0663 27.6602 20.9634 27.7272 20.8475 27.7562V27.7884ZM14.58 16.0898C14.5119 16.0898 14.4444 16.0761 14.3818 16.0494C14.3191 16.0226 14.2625 15.9835 14.2154 15.9343L12.2638 13.9881C12.1935 13.9464 12.1336 13.8892 12.0888 13.8209C12.044 13.7526 12.0153 13.6749 12.0051 13.5938C11.9949 13.5127 12.0033 13.4303 12.0298 13.353C12.0563 13.2757 12.1001 13.2054 12.1579 13.1477C12.2157 13.0899 12.286 13.046 12.3633 13.0196C12.4406 12.9931 12.523 12.9846 12.6041 12.9948C12.6852 13.005 12.7629 13.0337 12.8312 13.0785C12.8995 13.1234 12.9567 13.1832 12.9984 13.2536L14.6068 14.8352L17.4912 11.9507C17.5314 11.8769 17.5884 11.8135 17.6575 11.7657C17.7267 11.7179 17.8061 11.6871 17.8894 11.6757C17.9727 11.6643 18.0575 11.6726 18.137 11.7C18.2165 11.7274 18.2884 11.7731 18.3469 11.8334C18.4055 11.8937 18.449 11.967 18.4741 12.0472C18.4991 12.1275 18.5049 12.2125 18.491 12.2954C18.4771 12.3783 18.444 12.4568 18.3942 12.5245C18.3444 12.5922 18.2793 12.6473 18.2043 12.6852L14.9499 15.9343C14.8514 16.032 14.7188 16.0878 14.58 16.0898Z" fill="white"/>
</g>
<defs>
<clipPath id="clip0_82_131">
<rect width="50" height="50" fill="white" transform="translate(0.5)"/>
</clipPath>
</defs>
</svg>
