<svg width="50" height="50" viewBox="0 0 50 50" fill="none" xmlns="http://www.w3.org/2000/svg">
<path d="M45 33.9358V5.83334C45 5.1703 44.7366 4.53442 44.2678 4.06558C43.7989 3.59674 43.163 3.33334 42.5 3.33334H7.5C6.83696 3.33334 6.20107 3.59674 5.73223 4.06558C5.26339 4.53442 5 5.1703 5 5.83334V33.9358L0.119167 42.0708C0.0412416 42.2004 4.78591e-05 42.3488 0 42.5L0 45C0 45.442 0.175595 45.866 0.488155 46.1785C0.800716 46.4911 1.22464 46.6667 1.66667 46.6667H48.3333C48.7754 46.6667 49.1993 46.4911 49.5118 46.1785C49.8244 45.866 50 45.442 50 45V42.5C50 42.3488 49.9588 42.2004 49.8808 42.0708L45 33.9358ZM6.66667 5.83334C6.66667 5.61233 6.75446 5.40037 6.91074 5.24409C7.06702 5.08781 7.27899 5.00001 7.5 5.00001H42.5C42.721 5.00001 42.933 5.08781 43.0893 5.24409C43.2455 5.40037 43.3333 5.61233 43.3333 5.83334V33.3333H6.66667V5.83334ZM6.305 35H43.695L47.695 41.6667H34.7317L33.4817 38.5475C33.359 38.2379 33.1459 37.9723 32.8702 37.7855C32.5945 37.5987 32.2689 37.4992 31.9358 37.5H18.0642C17.7307 37.4989 17.4047 37.5984 17.1286 37.7854C16.8526 37.9724 16.6393 38.2383 16.5167 38.5483L15.2692 41.6667H2.305L6.305 35ZM32.9367 41.6667H17.0642L18.0642 39.1667H31.9358L32.9367 41.6667ZM48.3333 45H1.66667V43.3333H48.3333V45Z" fill="white"/>
<path d="M15.3446 23V19.2308H16.7715C17.1628 19.2308 17.4608 19.3187 17.6654 19.4946C17.8736 19.6669 17.9777 19.8949 17.9777 20.1785C17.9777 20.3867 17.9274 20.5572 17.8269 20.69C17.7264 20.8192 17.6008 20.9162 17.45 20.9808C17.5756 21.0274 17.6905 21.0974 17.7946 21.1908C17.9023 21.2841 17.9885 21.3954 18.0531 21.5246C18.1177 21.6503 18.15 21.7885 18.15 21.9392C18.15 22.1367 18.1015 22.3162 18.0046 22.4777C17.9077 22.6392 17.7677 22.7667 17.5846 22.86C17.4015 22.9533 17.1772 23 16.9115 23H15.3446ZM16.0338 22.4131H16.8469C17.0515 22.4131 17.2023 22.3664 17.2992 22.2731C17.3997 22.1797 17.45 22.0451 17.45 21.8692C17.45 21.6933 17.3979 21.5587 17.2938 21.4654C17.1897 21.3721 17.0372 21.3254 16.8362 21.3254H16.0338V22.4131ZM16.0338 20.7385H16.7123C16.9062 20.7385 17.0479 20.7008 17.1377 20.6254C17.2274 20.5464 17.2723 20.4297 17.2723 20.2754C17.2723 20.1282 17.2274 20.0151 17.1377 19.9362C17.0515 19.8572 16.9062 19.8177 16.7015 19.8177H16.0338V20.7385ZM21.3918 23V19.2308H22.081V22.4131H23.7072V23H21.3918ZM28.2565 23.0646C27.9119 23.0646 27.6301 22.9964 27.4112 22.86C27.1958 22.72 27.036 22.5351 26.9319 22.3054C26.8314 22.0756 26.7812 21.8262 26.7812 21.5569V19.2308H27.4704V21.5623C27.4704 21.8567 27.5404 22.0756 27.6804 22.2192C27.824 22.3628 28.0214 22.4346 28.2727 22.4346C28.5204 22.4346 28.716 22.3628 28.8596 22.2192C29.0032 22.0756 29.075 21.8567 29.075 21.5623V19.2308H29.7642V21.5569C29.7642 21.8405 29.7194 22.0792 29.6296 22.2731C29.5399 22.4669 29.4196 22.6213 29.2689 22.7362C29.1217 22.851 28.9583 22.9354 28.7789 22.9892C28.603 23.0395 28.4289 23.0646 28.2565 23.0646ZM33.1181 23V19.2308H35.5357V19.8177H33.8073V20.7169H35.2881V21.3038H33.8073V22.4131H35.5357V23H33.1181Z" fill="white"/>
</svg>
