<svg width="51" height="50" viewBox="0 0 51 50" fill="none" xmlns="http://www.w3.org/2000/svg">
<g clip-path="url(#clip0_82_146)">
<path d="M45.5 33.9358V5.83334C45.5 5.1703 45.2366 4.53442 44.7678 4.06558C44.2989 3.59674 43.663 3.33334 43 3.33334H8C7.33696 3.33334 6.70107 3.59674 6.23223 4.06558C5.76339 4.53442 5.5 5.1703 5.5 5.83334V33.9358L0.619167 42.0708C0.541242 42.2004 0.500048 42.3488 0.5 42.5L0.5 45C0.5 45.442 0.675595 45.866 0.988155 46.1785C1.30072 46.4911 1.72464 46.6667 2.16667 46.6667H48.8333C49.2754 46.6667 49.6993 46.4911 50.0118 46.1785C50.3244 45.866 50.5 45.442 50.5 45V42.5C50.5 42.3488 50.4588 42.2004 50.3808 42.0708L45.5 33.9358ZM7.16667 5.83334C7.16667 5.61233 7.25446 5.40037 7.41074 5.24409C7.56702 5.08781 7.77899 5.00001 8 5.00001H43C43.221 5.00001 43.433 5.08781 43.5893 5.24409C43.7455 5.40037 43.8333 5.61233 43.8333 5.83334V33.3333H7.16667V5.83334ZM6.805 35H44.195L48.195 41.6667H35.2317L33.9817 38.5475C33.859 38.2379 33.6459 37.9723 33.3702 37.7855C33.0945 37.5987 32.7689 37.4992 32.4358 37.5H18.5642C18.2307 37.4989 17.9047 37.5984 17.6286 37.7854C17.3526 37.9724 17.1393 38.2383 17.0167 38.5483L15.7692 41.6667H2.805L6.805 35ZM33.4367 41.6667H17.5642L18.5642 39.1667H32.4358L33.4367 41.6667ZM48.8333 45H2.16667V43.3333H48.8333V45Z" fill="white"/>
<path d="M28.5 4.5L23 8.5L27 11L20 15.5" stroke="white" stroke-width="1.5"/>
<path d="M44.2323 17.4524L38.0801 14.554L37.812 19.2634L30.5 15.2903" stroke="white" stroke-width="1.5"/>
</g>
<defs>
<clipPath id="clip0_82_146">
<rect width="50" height="50" fill="white" transform="translate(0.5)"/>
</clipPath>
</defs>
</svg>
