<svg width="51" height="50" viewBox="0 0 51 50" fill="none" xmlns="http://www.w3.org/2000/svg">
<path d="M25.5 45.3125C21.4826 45.3125 17.5554 44.1212 14.215 41.8892C10.8746 39.6573 8.2711 36.4849 6.7337 32.7733C5.19629 29.0616 4.79404 24.9775 5.5778 21.0372C6.36156 17.097 8.29614 13.4776 11.1369 10.6369C13.9776 7.79614 17.597 5.86156 21.5372 5.0778C25.4775 4.29404 29.5616 4.69629 33.2733 6.2337C36.9849 7.7711 40.1573 10.3746 42.3892 13.715C44.6212 17.0554 45.8125 20.9826 45.8125 25C45.8063 30.3853 43.6642 35.5483 39.8563 39.3563C36.0483 43.1642 30.8853 45.3063 25.5 45.3125ZM25.5 6.25C21.7916 6.25 18.1665 7.34967 15.0831 9.40994C11.9996 11.4702 9.5964 14.3986 8.17726 17.8247C6.75812 21.2508 6.3868 25.0208 7.11028 28.6579C7.83375 32.2951 9.61951 35.636 12.2417 38.2583C14.864 40.8805 18.2049 42.6662 21.8421 43.3897C25.4792 44.1132 29.2492 43.7419 32.6753 42.3227C36.1014 40.9036 39.0298 38.5004 41.0901 35.4169C43.1503 32.3335 44.25 28.7084 44.25 25C44.2444 20.0289 42.2672 15.263 38.7521 11.7479C35.237 8.23282 30.4711 6.25558 25.5 6.25ZM46.5938 48.4375H4.40625C3.78484 48.4369 3.18906 48.1898 2.74965 47.7503C2.31025 47.3109 2.06312 46.7152 2.0625 46.0938V3.90625C2.06312 3.28484 2.31025 2.68906 2.74965 2.24965C3.18906 1.81025 3.78484 1.56312 4.40625 1.5625H46.5938C47.2152 1.56312 47.8109 1.81025 48.2503 2.24965C48.6898 2.68906 48.9369 3.28484 48.9375 3.90625V46.0938C48.9369 46.7152 48.6898 47.3109 48.2503 47.7503C47.8109 48.1898 47.2152 48.4369 46.5938 48.4375ZM4.40625 3.125C4.19911 3.12521 4.00052 3.20758 3.85405 3.35405C3.70758 3.50052 3.62521 3.69911 3.625 3.90625V46.0938C3.62521 46.3009 3.70758 46.4995 3.85405 46.6459C4.00052 46.7924 4.19911 46.8748 4.40625 46.875H46.5938C46.8009 46.8748 46.9995 46.7924 47.1459 46.6459C47.2924 46.4995 47.3748 46.3009 47.375 46.0938V3.90625C47.3748 3.69911 47.2924 3.50052 47.1459 3.35405C46.9995 3.20758 46.8009 3.12521 46.5938 3.125H4.40625ZM42.2273 25.7633C41.8963 25.5307 41.5133 25.3826 41.1119 25.3318C40.7105 25.281 40.3028 25.3291 39.9242 25.4719C37.2235 26.0504 34.4335 26.0759 31.7227 25.5469C31.7313 25.4406 31.7344 25.3328 31.7383 25.2258C34.1305 24.5508 39.568 22.6992 40.9219 19.525C42.6875 15.3797 36.5969 11.2937 36.3359 11.1203C36.07 10.9494 35.7691 10.8403 35.4554 10.8011C35.1417 10.7619 34.8233 10.7935 34.5234 10.8938C34.1568 11.0641 33.8373 11.3215 33.5929 11.6435C33.3485 11.9655 33.1865 12.3424 33.1211 12.7414C32.27 15.3708 30.8973 17.8016 29.0852 19.8883C28.9966 19.8268 28.9065 19.7677 28.8148 19.7109C29.4227 17.3078 30.5367 11.6711 28.4688 8.90625C25.7656 5.30078 19.1797 8.53672 18.9008 8.67578C18.6201 8.8203 18.3754 9.02583 18.1845 9.27727C17.9936 9.52872 17.8614 9.81972 17.7977 10.1289C17.7615 10.5323 17.8246 10.9384 17.9815 11.3118C18.1384 11.6852 18.3842 12.0146 18.6977 12.2711C20.5514 14.3209 21.9687 16.7265 22.8633 19.3414C22.7648 19.3875 22.6656 19.432 22.5703 19.4828C20.9844 17.9352 16.5406 13.9578 13.0469 14.3813C8.57656 14.9219 8.08281 22.243 8.06328 22.5562C8.0488 22.8714 8.10499 23.1858 8.22773 23.4764C8.35047 23.7671 8.53666 24.0266 8.77266 24.2359C9.14848 24.5323 9.61699 24.6861 10.0953 24.6703C10.4267 24.6657 10.756 24.6179 11.075 24.5281C13.7763 23.9498 16.5667 23.9243 19.2781 24.4531C19.2687 24.5594 19.2656 24.6672 19.2617 24.7742C16.8695 25.4492 11.432 27.3008 10.0781 30.475C8.3125 34.6203 14.4031 38.7062 14.6641 38.8797C15.0141 39.0982 15.4171 39.2173 15.8297 39.2242C16.0507 39.2248 16.27 39.1849 16.4766 39.1063C16.8432 38.9359 17.1627 38.6785 17.4071 38.3565C17.6515 38.0345 17.8135 37.6576 17.8789 37.2586C18.73 34.6292 20.1027 32.1984 21.9148 30.1117C22.0031 30.1742 22.0945 30.232 22.1852 30.2891C21.5773 32.6922 20.4633 38.3289 22.5312 41.0938C22.9963 41.6682 23.5927 42.1223 24.2701 42.4177C24.9475 42.7132 25.6861 42.8414 26.4234 42.7914C28.3949 42.6901 30.3256 42.191 32.0992 41.3242C32.3799 41.1797 32.6246 40.9742 32.8155 40.7227C33.0064 40.4713 33.1386 40.1803 33.2023 39.8711C33.2385 39.4677 33.1754 39.0616 33.0185 38.6882C32.8616 38.3148 32.6158 37.9854 32.3023 37.7289C30.4486 35.6791 29.0313 33.2735 28.1367 30.6586C28.2352 30.6125 28.3344 30.568 28.4297 30.5172C29.9391 31.9891 34.0336 35.6508 37.4273 35.65C37.6031 35.6502 37.7787 35.6397 37.9531 35.6187C42.4234 35.0781 42.9172 27.7562 42.9359 27.4437C42.9505 27.1287 42.8944 26.8143 42.7718 26.5237C42.6492 26.233 42.4632 25.9727 42.2273 25.7633ZM25.5 29.6875C24.5729 29.6875 23.6666 29.4126 22.8958 28.8975C22.1249 28.3824 21.5241 27.6504 21.1693 26.7938C20.8145 25.9373 20.7217 24.9948 20.9026 24.0855C21.0834 23.1762 21.5299 22.341 22.1854 21.6854C22.841 21.0299 23.6762 20.5834 24.5855 20.4026C25.4948 20.2217 26.4373 20.3145 27.2938 20.6693C28.1504 21.0241 28.8824 21.6249 29.3975 22.3958C29.9126 23.1666 30.1875 24.0729 30.1875 25C30.1861 26.2428 29.6917 27.4342 28.813 28.313C27.9342 29.1917 26.7428 29.6861 25.5 29.6875ZM34.6297 13.1469C34.8 12.5102 35.0141 12.3805 35.075 12.3555C35.2123 12.328 35.355 12.3528 35.475 12.425C36.9438 13.3984 40.5281 16.4625 39.4844 18.9125C38.6063 20.9719 34.8625 22.6859 31.5969 23.6406C31.3737 22.6425 30.9081 21.7147 30.2414 20.9391C32.2264 18.6725 33.7206 16.0194 34.6297 13.1469ZM19.8023 11.1664C19.3352 10.6992 19.3297 10.4492 19.3391 10.3836C19.3609 10.2328 19.5586 10.0961 19.5992 10.0742C19.6562 10.0453 25.3188 7.31016 27.218 9.84297C28.5594 11.6359 28.1742 15.7344 27.3719 19.0367C26.3949 18.7278 25.3562 18.6674 24.35 18.8609C23.3859 16.0077 21.837 13.387 19.8023 11.1664ZM10.6727 23.0188C10.0359 23.1898 9.81484 23.068 9.7625 23.0281C9.67132 22.9231 9.62184 22.7883 9.62344 22.6492C9.62734 22.5859 10.0937 16.3117 13.2344 15.932C15.6109 15.6508 19.157 18.3789 21.2766 20.4062C20.5239 21.0977 19.952 21.9631 19.6109 22.9266C16.6576 22.3374 13.614 22.3688 10.6734 23.0188H10.6727ZM16.3703 36.8531C16.2 37.4898 15.9859 37.6195 15.925 37.6445C15.7877 37.6723 15.6449 37.6475 15.525 37.575C14.0563 36.6016 10.4719 33.5375 11.5156 31.0875C12.3938 29.0281 16.1375 27.3141 19.4031 26.3594C19.6263 27.3575 20.0919 28.2853 20.7586 29.0609C18.7736 31.3275 17.2794 33.9806 16.3703 36.8531ZM31.1977 38.8336C31.6648 39.3008 31.6703 39.5508 31.6609 39.6164C31.6391 39.7672 31.4414 39.9039 31.4008 39.9258C31.3438 39.9547 25.6805 42.6898 23.782 40.157C22.4406 38.3641 22.8258 34.2656 23.6281 30.9633C24.6051 31.2722 25.6438 31.3326 26.65 31.1391C27.6141 33.9923 29.163 36.613 31.1977 38.8336ZM37.7656 34.068C35.4008 34.3617 31.8453 31.6227 29.7234 29.593C30.4761 28.9015 31.048 28.0362 31.3891 27.0727C34.3425 27.6613 37.3859 27.6299 40.3266 26.9805C40.9641 26.8094 41.1844 26.9312 41.2367 26.9719C41.3282 27.0768 41.3779 27.2116 41.3766 27.3508C41.3727 27.4141 40.9062 33.6883 37.7656 34.068ZM5.96875 4.6875C5.81423 4.6875 5.66319 4.73332 5.53471 4.81916C5.40623 4.90501 5.3061 5.02702 5.24697 5.16978C5.18784 5.31253 5.17237 5.46962 5.20251 5.62116C5.23266 5.77271 5.30706 5.91192 5.41632 6.02118C5.52558 6.13044 5.66479 6.20484 5.81634 6.23499C5.96788 6.26513 6.12497 6.24966 6.26772 6.19053C6.41048 6.1314 6.53249 6.03127 6.61834 5.90279C6.70418 5.77431 6.75 5.62327 6.75 5.46875C6.75 5.26155 6.66769 5.06284 6.52118 4.91632C6.37466 4.76981 6.17595 4.6875 5.96875 4.6875ZM5.96875 43.75C5.81423 43.75 5.66319 43.7958 5.53471 43.8817C5.40623 43.9675 5.3061 44.0895 5.24697 44.2323C5.18784 44.375 5.17237 44.5321 5.20251 44.6837C5.23266 44.8352 5.30706 44.9744 5.41632 45.0837C5.52558 45.1929 5.66479 45.2673 5.81634 45.2975C5.96788 45.3276 6.12497 45.3122 6.26772 45.253C6.41048 45.1939 6.53249 45.0938 6.61834 44.9653C6.70418 44.8368 6.75 44.6858 6.75 44.5312C6.75 44.3241 6.66769 44.1253 6.52118 43.9788C6.37466 43.8323 6.17595 43.75 5.96875 43.75ZM45.0312 4.6875C44.8767 4.6875 44.7257 4.73332 44.5972 4.81916C44.4687 4.90501 44.3686 5.02702 44.3095 5.16978C44.2503 5.31253 44.2349 5.46962 44.265 5.62116C44.2952 5.77271 44.3696 5.91192 44.4788 6.02118C44.5881 6.13044 44.7273 6.20484 44.8788 6.23499C45.0304 6.26513 45.1875 6.24966 45.3302 6.19053C45.473 6.1314 45.595 6.03127 45.6808 5.90279C45.7667 5.77431 45.8125 5.62327 45.8125 5.46875C45.8125 5.26155 45.7302 5.06284 45.5837 4.91632C45.4372 4.76981 45.2384 4.6875 45.0312 4.6875ZM45.0312 43.75C44.8767 43.75 44.7257 43.7958 44.5972 43.8817C44.4687 43.9675 44.3686 44.0895 44.3095 44.2323C44.2503 44.375 44.2349 44.5321 44.265 44.6837C44.2952 44.8352 44.3696 44.9744 44.4788 45.0837C44.5881 45.1929 44.7273 45.2673 44.8788 45.2975C45.0304 45.3276 45.1875 45.3122 45.3302 45.253C45.473 45.1939 45.595 45.0938 45.6808 44.9653C45.7667 44.8368 45.8125 44.6858 45.8125 44.5312C45.8125 44.3241 45.7302 44.1253 45.5837 43.9788C45.4372 43.8323 45.2384 43.75 45.0312 43.75Z" fill="white"/>
</svg>
