<svg width="51" height="50" viewBox="0 0 51 50" fill="none" xmlns="http://www.w3.org/2000/svg">
<g clip-path="url(#clip0_82_255)">
<path d="M6.33366 33.3333H11.637C12.145 33.7853 12.7799 34.0698 13.4553 34.1483C14.9109 34.2448 16.2798 34.8744 17.3004 35.9167C17.6654 36.3584 17.7962 36.5434 17.9095 36.7042C18.6344 37.6628 19.4258 38.5692 20.2779 39.4167C21.071 40.2897 21.9584 41.0723 22.9237 41.75C24.0309 42.6687 24.8126 43.9196 25.1529 45.3175C24.6661 45.5813 24.281 45.9998 24.0585 46.5068C23.836 47.0139 23.7887 47.5806 23.9241 48.1175C24.0595 48.6544 24.3698 49.1309 24.8062 49.4718C25.2425 49.8127 25.78 49.9985 26.3337 50H39.667C40.1687 50.0015 40.6592 49.8516 41.0743 49.5699C41.4894 49.2882 41.8099 48.8877 41.9937 48.4209C42.1776 47.9541 42.2163 47.4426 42.1047 46.9535C41.9932 46.4643 41.7367 46.0202 41.3686 45.6792C41.5677 45.3459 41.7811 44.9976 42.0269 44.6292C43.8336 41.9226 43.8336 40.0567 43.8336 36.6667V33.3334H44.6669C46.0475 33.3334 47.1669 32.2141 47.1669 30.8334V2.5C47.1669 1.11934 46.0475 0 44.6669 0H6.33366C4.953 0 3.83366 1.11934 3.83366 2.5V30.8333C3.83366 32.2141 4.953 33.3333 6.33366 33.3333ZM6.33366 31.6667C6.11266 31.6667 5.90071 31.5789 5.74443 31.4226C5.58816 31.2664 5.50036 31.0544 5.50036 30.8334V25.8334H22.1587V30C19.3978 28.24 17.1136 27.27 13.6337 27.5042C13.1414 27.53 12.6612 27.6656 12.2282 27.901C11.7951 28.1365 11.4202 28.4658 11.1309 28.8649C10.8416 29.2639 10.6452 29.7227 10.5562 30.2075C10.4671 30.6923 10.4876 31.1909 10.6162 31.6667H6.33366ZM39.6671 48.3333H26.3337C26.1127 48.3333 25.9007 48.2455 25.7444 48.0892C25.5882 47.933 25.5004 47.721 25.5004 47.5C25.5004 47.279 25.5882 47.067 25.7444 46.9108C25.9007 46.7545 26.1127 46.6667 26.3337 46.6667H39.667C40.1272 46.6667 40.5003 47.0397 40.5003 47.5C40.5003 47.9603 40.1273 48.3333 39.6671 48.3333ZM42.1671 36.6667C42.1671 39.9267 42.1671 41.4167 40.6404 43.7051C40.3556 44.1335 40.0846 44.5709 39.8279 45.0167C39.7737 45.0167 39.722 45 39.6671 45H26.7979C26.3683 43.1879 25.351 41.5689 23.9046 40.3958C23.0262 39.7799 22.2183 39.0692 21.4954 38.2767C20.6984 37.4832 19.9559 36.6368 19.2729 35.7434C19.1446 35.5617 18.997 35.3517 18.5871 34.8559C17.2944 33.4763 15.5314 32.6318 13.6463 32.4892C12.7793 32.3988 12.1283 31.6556 12.153 30.7843C12.1777 29.9129 12.8697 29.2078 13.7404 29.1667C16.7854 28.9608 18.7338 29.7926 21.2663 31.4075C21.5181 31.5671 21.8082 31.6563 22.1062 31.6656C22.4043 31.675 22.6994 31.6042 22.9608 31.4607C23.2221 31.3172 23.4402 31.1063 23.5923 30.8498C23.7444 30.5933 23.8249 30.3007 23.8255 30.0025L23.8338 10.8334C23.8335 10.607 23.8793 10.3829 23.9685 10.1748C24.0577 9.96664 24.1883 9.77888 24.3525 9.62292C24.5166 9.46696 24.7108 9.34607 24.9232 9.26763C25.1356 9.1892 25.3618 9.15485 25.5879 9.1667C26.5058 9.26709 27.1929 10.0554 27.1671 10.9783V25C27.1671 25.221 27.2549 25.433 27.4111 25.5892C27.5674 25.7455 27.7794 25.8333 28.0004 25.8333C28.2214 25.8333 28.4333 25.7455 28.5896 25.5892C28.7459 25.433 28.8337 25.221 28.8337 25V21.6667C28.8337 20.7462 29.5799 20 30.5004 20C31.4209 20 32.1671 20.7462 32.1671 21.6667V25.8334C32.1671 26.2937 32.5401 26.6667 33.0004 26.6667C33.4606 26.6667 33.8337 26.2937 33.8337 25.8334V22.5C33.8337 21.5795 34.5799 20.8333 35.5004 20.8333C36.4209 20.8333 37.1671 21.5795 37.1671 22.5V26.6667C37.1671 26.8877 37.2549 27.0997 37.4111 27.2559C37.5674 27.4122 37.7794 27.5 38.0004 27.5C38.2214 27.5 38.4333 27.4122 38.5896 27.2559C38.7459 27.0997 38.8337 26.8877 38.8337 26.6667V24.1667C38.8337 23.2462 39.5799 22.5 40.5004 22.5C41.4209 22.5 42.1671 23.2462 42.1671 24.1667V36.6667ZM44.6671 31.6667H43.8338V25.8334H45.5004V30.8334C45.5004 31.0544 45.4126 31.2664 45.2563 31.4226C45.1 31.5789 44.8881 31.6667 44.6671 31.6667ZM6.33366 1.6667H44.667C44.888 1.6667 45.0999 1.75449 45.2562 1.91077C45.4125 2.06704 45.5003 2.279 45.5003 2.5V24.1667H43.8336C43.8325 23.5621 43.6671 22.9692 43.355 22.4514C43.0429 21.9336 42.5958 21.5105 42.0616 21.2273C41.5275 20.9441 40.9264 20.8115 40.3227 20.8437C39.7189 20.8759 39.1353 21.0717 38.6343 21.4101C38.4613 20.8978 38.1648 20.4361 37.7711 20.0655C37.3774 19.6949 36.8986 19.4269 36.3768 19.2851C35.8551 19.1433 35.3065 19.132 34.7793 19.2524C34.2522 19.3727 33.7628 19.6209 33.3543 19.975C33.1368 19.5987 32.8466 19.2695 32.5008 19.0063C32.1549 18.7432 31.7602 18.5514 31.3395 18.4421C30.9189 18.3329 30.4807 18.3083 30.0505 18.3699C29.6203 18.4315 29.2066 18.578 28.8335 18.8009V10.9784C28.8687 9.1668 27.4836 7.64268 25.6768 7.50508C25.2246 7.47768 24.7715 7.54456 24.3465 7.70149C23.9214 7.85842 23.5336 8.10198 23.2077 8.4167C22.8803 8.72857 22.6193 9.10342 22.4404 9.51873C22.2615 9.93403 22.1685 10.3812 22.1669 10.8334L22.1602 24.1667H5.50036V2.5C5.50036 2.279 5.58816 2.06704 5.74443 1.91077C5.90071 1.75449 6.11266 1.6667 6.33366 1.6667Z" fill="white"/>
<path d="M25.5003 5.8333C25.6097 5.8333 25.7181 5.81175 25.8192 5.76987C25.9203 5.72799 26.0121 5.66661 26.0895 5.58923C26.1669 5.51185 26.2283 5.41999 26.2702 5.31889C26.312 5.21779 26.3336 5.10943 26.3336 5V3.3333C26.3336 3.1123 26.2458 2.90034 26.0895 2.74407C25.9333 2.58779 25.7213 2.5 25.5003 2.5C25.2793 2.5 25.0673 2.58779 24.9111 2.74407C24.7548 2.90034 24.667 3.1123 24.667 3.3333V5C24.667 5.22101 24.7548 5.43296 24.9111 5.58923C25.0673 5.74551 25.2793 5.8333 25.5003 5.8333ZM20.7861 7.29746C20.8629 7.37764 20.9548 7.44168 21.0567 7.48583C21.1585 7.52998 21.2681 7.55335 21.3791 7.55456C21.49 7.55578 21.6001 7.53482 21.7029 7.49291C21.8057 7.451 21.899 7.38899 21.9775 7.31052C22.056 7.23204 22.118 7.13868 22.1599 7.03592C22.2018 6.93316 22.2228 6.82306 22.2216 6.71208C22.2203 6.60111 22.197 6.4915 22.1528 6.38968C22.1087 6.28785 22.0446 6.19588 21.9645 6.11914L20.7861 4.94082C20.629 4.78902 20.4185 4.70502 20.2 4.70692C19.9815 4.70882 19.7725 4.79647 19.618 4.95098C19.4635 5.10548 19.3758 5.31449 19.3739 5.53298C19.372 5.75148 19.456 5.96198 19.6078 6.11914L20.7861 7.29746ZM18.0003 11.6667H19.667C19.888 11.6667 20.0999 11.5789 20.2562 11.4226C20.4125 11.2664 20.5003 11.0544 20.5003 10.8334C20.5003 10.6124 20.4125 10.4004 20.2562 10.2442C20.0999 10.0879 19.888 10.0001 19.667 10.0001H18.0003C17.7793 10.0001 17.5673 10.0879 17.4111 10.2442C17.2548 10.4004 17.167 10.6124 17.167 10.8334C17.167 11.0544 17.2548 11.2664 17.4111 11.4226C17.5673 11.5789 17.7793 11.6667 18.0003 11.6667ZM30.5003 10.8333C30.5003 11.0543 30.5881 11.2663 30.7444 11.4225C30.9006 11.5788 31.1126 11.6666 31.3336 11.6666H33.0003C33.2213 11.6666 33.4333 11.5788 33.5895 11.4225C33.7458 11.2663 33.8336 11.0543 33.8336 10.8333C33.8336 10.6123 33.7458 10.4003 33.5895 10.2441C33.4333 10.0878 33.2213 10 33.0003 10H31.3336C31.1126 10 30.9007 10.0878 30.7444 10.2441C30.5881 10.4004 30.5003 10.6123 30.5003 10.8333ZM29.6253 7.5417C29.8463 7.5417 30.0582 7.45381 30.2145 7.29756L31.3928 6.11924C31.4729 6.0425 31.537 5.95052 31.5811 5.8487C31.6253 5.74688 31.6487 5.63727 31.6499 5.5263C31.6511 5.41532 31.6301 5.30522 31.5882 5.20246C31.5463 5.0997 31.4843 5.00634 31.4058 4.92786C31.3274 4.84939 31.234 4.78738 31.1312 4.74547C31.0285 4.70356 30.9184 4.6826 30.8074 4.68382C30.6964 4.68503 30.5868 4.7084 30.485 4.75255C30.3832 4.7967 30.2912 4.86074 30.2145 4.94092L29.0361 6.11914C28.9196 6.23567 28.8402 6.38415 28.8081 6.54579C28.7759 6.70743 28.7924 6.87498 28.8555 7.02725C28.9185 7.17952 29.0253 7.30967 29.1623 7.40124C29.2994 7.49281 29.4605 7.54169 29.6253 7.5417Z" fill="white"/>
</g>
<defs>
<clipPath id="clip0_82_255">
<rect width="50" height="50" fill="white" transform="translate(0.5)"/>
</clipPath>
</defs>
</svg>
