<svg width="51" height="50" viewBox="0 0 51 50" fill="none" xmlns="http://www.w3.org/2000/svg">
<g clip-path="url(#clip0_82_261)">
<path d="M47.6491 12.8939H6.95117V9.77127C6.95117 9.56407 6.86886 9.36536 6.72235 9.21884C6.57584 9.07233 6.37712 8.99002 6.16992 8.99002H1.28125C1.07405 8.99002 0.875336 9.07233 0.728823 9.21884C0.58231 9.36536 0.5 9.56407 0.5 9.77127C0.5 9.97847 0.58231 10.1772 0.728823 10.3237C0.875336 10.4702 1.07405 10.5525 1.28125 10.5525H5.38867V16.0792H3.56123C3.35403 16.0792 3.15532 16.1615 3.0088 16.308C2.86229 16.4545 2.77998 16.6532 2.77998 16.8604V23.0803C2.77998 23.2875 2.86229 23.4862 3.0088 23.6327C3.15532 23.7792 3.35403 23.8615 3.56123 23.8615H5.38867V25.7375H3.56123C3.35403 25.7375 3.15532 25.8198 3.0088 25.9663C2.86229 26.1128 2.77998 26.3115 2.77998 26.5187V32.7386C2.77998 32.9458 2.86229 33.1445 3.0088 33.291C3.15532 33.4375 3.35403 33.5198 3.56123 33.5198H5.38867V40.2287C5.38867 40.4359 5.47098 40.6346 5.61749 40.7811C5.76401 40.9276 5.96272 41.0099 6.16992 41.0099C6.37712 41.0099 6.57584 40.9276 6.72235 40.7811C6.86886 40.6346 6.95117 40.4359 6.95117 40.2287V36.7052H9.95918V39.8798C9.95918 40.087 10.0415 40.2857 10.188 40.4322C10.3345 40.5787 10.5332 40.661 10.7404 40.661H21.6381C21.8453 40.661 22.044 40.5787 22.1905 40.4322C22.337 40.2857 22.4193 40.087 22.4193 39.8798V36.7052H24.9962V39.8798C24.9962 40.087 25.0785 40.2857 25.225 40.4322C25.3715 40.5787 25.5702 40.661 25.7774 40.661H45.1483C45.3555 40.661 45.5543 40.5787 45.7008 40.4322C45.8473 40.2857 45.9296 40.087 45.9296 39.8798V36.7052H47.6491C49.2211 36.7052 50.5 35.4263 50.5 33.8543V15.7449C50.5 14.1728 49.2211 12.8939 47.6491 12.8939ZM4.34248 22.2991V17.6417H5.38867V22.299H4.34248V22.2991ZM4.34248 31.9574V27.3001H5.38867V31.9574H4.34248ZM20.8568 39.0985H18.7867V38.1119C18.7867 37.9047 18.7044 37.706 18.5579 37.5595C18.4114 37.413 18.2127 37.3306 18.0055 37.3306C17.7983 37.3306 17.5996 37.413 17.453 37.5595C17.3065 37.706 17.2242 37.9047 17.2242 38.1119V39.0985H15.1542V38.1119C15.1542 37.9047 15.0719 37.706 14.9254 37.5595C14.7789 37.413 14.5802 37.3306 14.3729 37.3306C14.1657 37.3306 13.967 37.413 13.8205 37.5595C13.674 37.706 13.5917 37.9047 13.5917 38.1119V39.0985H11.5217V36.7052H20.8568V39.0985ZM44.3671 39.0985H42.7009V38.1119C42.7009 37.9047 42.6186 37.706 42.4721 37.5595C42.3255 37.413 42.1268 37.3306 41.9196 37.3306C41.7124 37.3306 41.5137 37.413 41.3672 37.5595C41.2207 37.706 41.1384 37.9047 41.1384 38.1119V39.0985H39.4725V38.1119C39.4725 37.9047 39.3902 37.706 39.2436 37.5595C39.0971 37.413 38.8984 37.3306 38.6912 37.3306C38.484 37.3306 38.2853 37.413 38.1388 37.5595C37.9923 37.706 37.91 37.9047 37.91 38.1119V39.0985H36.2439V38.1119C36.2439 37.9047 36.1616 37.706 36.0151 37.5595C35.8686 37.413 35.6699 37.3306 35.4627 37.3306C35.2555 37.3306 35.0568 37.413 34.9103 37.5595C34.7638 37.706 34.6814 37.9047 34.6814 38.1119V39.0985H33.0155V38.1119C33.0155 37.9047 32.9332 37.706 32.7867 37.5595C32.6402 37.413 32.4415 37.3306 32.2343 37.3306C32.0271 37.3306 31.8284 37.413 31.6819 37.5595C31.5353 37.706 31.453 37.9047 31.453 38.1119V39.0985H29.7871V38.1119C29.7871 37.9047 29.7048 37.706 29.5583 37.5595C29.4118 37.413 29.2131 37.3306 29.0059 37.3306C28.7987 37.3306 28.5999 37.413 28.4534 37.5595C28.3069 37.706 28.2246 37.9047 28.2246 38.1119V39.0985H26.5586V36.7052H44.367V39.0985H44.3671ZM48.9375 33.8543C48.9375 34.5646 48.3596 35.1427 47.6491 35.1427H6.95117V14.4564H47.6491C48.3596 14.4564 48.9375 15.0345 48.9375 15.7448V33.8543ZM38.0986 15.7388C33.1025 15.7388 29.0379 19.8034 29.0379 24.7995C29.0379 29.7956 33.1025 33.8601 38.0986 33.8601C43.0947 33.8601 47.1593 29.7956 47.1593 24.7995C47.1593 19.8034 43.0947 15.7388 38.0986 15.7388ZM34.0148 31.0832C35.7147 30.5731 37.1805 29.4066 38.0465 27.8337C38.0639 27.834 38.0812 27.835 38.0986 27.835C38.3375 27.835 38.5696 27.8064 38.7927 27.754C39.1396 29.3403 38.7299 31.0344 37.6681 32.2845C36.3259 32.2081 35.0778 31.7763 34.0148 31.0832ZM30.7629 26.3511C31.7668 26.892 32.8892 27.1755 34.0296 27.176C34.6633 27.176 35.2994 27.0872 35.918 26.9078C36.0922 27.0881 36.288 27.2463 36.5009 27.3788C35.6253 28.7449 34.1395 29.6527 32.5064 29.7873C31.6513 28.8296 31.0378 27.6523 30.7629 26.3511ZM42.1825 18.516C40.4825 19.0261 39.0168 20.1926 38.1508 21.7655C38.1334 21.7652 38.1161 21.7641 38.0986 21.7641C37.8598 21.7641 37.6276 21.7928 37.4046 21.8451C37.0576 20.2587 37.4675 18.5646 38.5293 17.3145C39.8716 17.391 41.1195 17.8227 42.1825 18.516ZM38.0986 26.2724C37.2864 26.2724 36.6257 25.6116 36.6257 24.7995C36.6257 23.9874 37.2864 23.3266 38.0986 23.3266C38.9107 23.3266 39.5716 23.9874 39.5716 24.7995C39.5716 25.6116 38.9108 26.2724 38.0986 26.2724ZM35.9904 22.6187C35.8101 22.793 35.6519 22.9888 35.5193 23.2016C34.1532 22.3261 33.2454 20.8403 33.1108 19.2071C34.0682 18.3524 35.2449 17.7391 36.5455 17.464C35.702 19.0282 35.4896 20.892 35.9904 22.6187ZM35.0646 24.7475C35.0643 24.7649 35.0632 24.7821 35.0632 24.7996C35.0632 25.0385 35.0918 25.2706 35.1442 25.4937C33.5578 25.8406 31.8638 25.4307 30.6137 24.369C30.69 23.0267 31.1218 21.7788 31.815 20.7157C32.3251 22.4156 33.4916 23.8814 35.0646 24.7475ZM40.2068 26.9804C40.3872 26.8061 40.5454 26.6103 40.6779 26.3974C42.044 27.273 42.9519 28.7588 43.0863 30.392C42.129 31.2467 40.9522 31.8599 39.6518 32.135C40.4953 30.5709 40.7077 28.707 40.2068 26.9804ZM41.1327 24.8516C41.133 24.8343 41.1341 24.817 41.1341 24.7995C41.1339 24.5658 41.1068 24.333 41.0531 24.1055C42.6396 23.7587 44.3336 24.1685 45.5836 25.2303C45.5072 26.5724 45.0755 27.8205 44.3822 28.8835C43.8722 27.1835 42.7057 25.7178 41.1327 24.8516ZM40.2795 22.6915C40.1052 22.5111 39.9095 22.3529 39.6966 22.2204C40.5722 20.8543 42.0579 19.9464 43.6911 19.8119C44.5458 20.7692 45.1591 21.946 45.4342 23.2466C43.87 22.4028 42.0062 22.1905 40.2795 22.6915ZM17.7901 15.7388C12.794 15.7388 8.72949 19.8034 8.72949 24.7995C8.72949 29.7956 12.7941 33.8601 17.7901 33.8601C22.7861 33.8601 26.8508 29.7956 26.8508 24.7995C26.8508 19.8034 22.7861 15.7388 17.7901 15.7388ZM13.7063 31.0831C15.4062 30.573 16.872 29.4065 17.738 27.8336C17.7554 27.8339 17.7727 27.8349 17.7901 27.8349C18.029 27.8349 18.2611 27.8063 18.4842 27.754C18.8312 29.3403 18.4214 31.0344 17.3596 32.2845C16.0173 32.2081 14.7693 31.7764 13.7063 31.0831ZM10.4544 26.3512C11.4583 26.8921 12.5807 27.1755 13.721 27.176C14.3547 27.176 14.9908 27.0872 15.6094 26.9078C15.7836 27.0881 15.9793 27.2463 16.1922 27.3788C15.3166 28.7449 13.8309 29.6527 12.1978 29.7873C11.3428 28.8296 10.7293 27.6523 10.4544 26.3512ZM21.874 18.516C20.174 19.0261 18.7083 20.1926 17.8422 21.7655C17.8248 21.7652 17.8075 21.7641 17.79 21.7641C17.5513 21.7641 17.319 21.7928 17.0961 21.8451C16.7491 20.2587 17.159 18.5646 18.2208 17.3145C19.563 17.391 20.8109 17.8227 21.874 18.516ZM17.79 26.2724C16.9779 26.2724 16.3171 25.6116 16.3171 24.7995C16.3171 23.9874 16.9778 23.3266 17.79 23.3266C18.6022 23.3266 19.263 23.9874 19.263 24.7995C19.263 25.6116 18.6022 26.2724 17.79 26.2724ZM15.6819 22.6187C15.5016 22.793 15.3433 22.9888 15.2108 23.2017C13.8448 22.3262 12.9369 20.8404 12.8024 19.2072C13.7598 18.3525 14.9365 17.7392 16.2371 17.4641C15.3935 19.0282 15.1811 20.892 15.6819 22.6187ZM14.756 24.7475C14.7557 24.7649 14.7547 24.7821 14.7547 24.7996C14.7547 25.0385 14.7833 25.2706 14.8357 25.4937C13.2493 25.8406 11.5554 25.4307 10.3053 24.3691C10.3816 23.0268 10.8134 21.7788 11.5066 20.7158C12.0166 22.4157 13.183 23.8814 14.756 24.7475ZM19.8982 26.9804C20.0786 26.8061 20.2368 26.6103 20.3693 26.3974C21.7355 27.273 22.6433 28.7588 22.7778 30.392C21.8205 31.2467 20.6437 31.8599 19.3432 32.135C20.1868 30.5709 20.3991 28.707 19.8982 26.9804ZM20.8241 24.8516C20.8244 24.8343 20.8255 24.8171 20.8255 24.7996C20.8253 24.5659 20.7982 24.3331 20.7445 24.1056C22.331 23.7588 24.025 24.1686 25.2751 25.2304C25.1986 26.5725 24.767 27.8206 24.0737 28.8836C23.5636 27.1835 22.3971 25.7177 20.8241 24.8516ZM19.971 22.6915C19.7967 22.5111 19.6009 22.3529 19.388 22.2204C20.2636 20.8543 21.7494 19.9464 23.3826 19.8119C24.2373 20.7692 24.8506 21.946 25.1256 23.2467C23.5615 22.4029 21.6978 22.1906 19.971 22.6915Z" fill="white"/>
</g>
<defs>
<clipPath id="clip0_82_261">
<rect width="50" height="50" fill="white" transform="translate(0.5)"/>
</clipPath>
</defs>
</svg>
